<svg width="84" height="85" viewBox="0 0 84 85" fill="none" xmlns="http://www.w3.org/2000/svg">
<path d="M46.2551 37.6856L45.8574 35.0599C45.0135 35.1914 44.1617 35.3016 43.3112 35.3946L43.596 38.0349C44.4846 37.9366 45.3744 37.8224 46.2551 37.6856Z" fill="black"/>
<path d="M51.5498 36.5434L50.8252 33.9907C50.0535 34.2152 49.2266 34.4197 48.3696 34.603L48.909 37.2021C49.8278 37.0069 50.7163 36.7851 51.5498 36.5434Z" fill="black"/>
<path d="M40.9329 38.2792L40.7439 35.6309C39.8698 35.6947 39.0062 35.7425 38.1636 35.777L38.2699 38.4306C39.1388 38.3961 40.0299 38.3456 40.9329 38.2792Z" fill="black"/>
<path d="M43.3125 56.7229L43.5973 59.3632C44.4859 59.2649 45.3758 59.1494 46.2564 59.0126L45.8587 56.3869C45.0148 56.5197 44.163 56.6299 43.3125 56.7229Z" fill="black"/>
<path d="M48.3696 55.9287L48.909 58.5278C49.8383 58.3313 50.7268 58.1095 51.5498 57.8704L50.8252 55.3177C50.064 55.5382 49.2384 55.7454 48.3696 55.9287Z" fill="black"/>
<path d="M82.6875 30.5469V1.32812H61.6875V30.5469H70.875V37.3761C69.0388 37.8595 67.6016 39.3138 67.1239 41.1719H56.4375V26.5625C56.4375 21.3098 41.8425 19.9219 34.125 19.9219C26.4075 19.9219 11.8125 21.3098 11.8125 26.5625V46.8549L10.584 46.1165L3.57262 53.2113L5.51513 56.517C5.32219 56.938 5.14631 57.3644 4.99013 57.7867L1.3125 58.7337V68.7677L4.99013 69.7146C5.14631 70.137 5.32088 70.5633 5.51513 70.9843L3.57262 74.29L10.584 81.3848L13.8508 79.4205C14.2669 79.6158 14.6869 79.7938 15.1056 79.9518L16.0427 83.6719H25.9586L26.8944 79.9505C27.3131 79.7924 27.7331 79.6145 28.1492 79.4192L31.416 81.3835L38.4274 74.2887L36.4849 70.983C36.6778 70.562 36.8537 70.1356 37.0099 69.7133L40.6875 68.7663V64.8098C45.6015 64.3981 56.4375 62.9757 56.4375 58.4375V43.8281H67.1239C67.6016 45.6862 69.0388 47.1405 70.875 47.6239V54.4531H61.6875V83.6719H82.6875V54.4531H73.5V47.6239C75.7575 47.0302 77.4375 44.969 77.4375 42.5C77.4375 40.031 75.7575 37.9698 73.5 37.3761V30.5469H82.6875ZM34.125 22.5781C46.914 22.5781 53.8125 25.4057 53.8125 26.5625C53.8125 27.7193 46.914 30.5469 34.125 30.5469C21.336 30.5469 14.4375 27.7193 14.4375 26.5625C14.4375 25.4057 21.336 22.5781 34.125 22.5781ZM14.4375 29.9373C18.9932 32.4448 28.4287 33.2031 34.125 33.2031C39.8213 33.2031 49.2568 32.4448 53.8125 29.9373V37.1875C53.8125 38.3443 46.914 41.1719 34.125 41.1719C21.336 41.1719 14.4375 38.3443 14.4375 37.1875V29.9373ZM38.0625 66.7024L34.9729 67.4966L34.7511 68.1979C34.5161 68.9416 34.2064 69.6934 33.8271 70.4371L33.4937 71.0905L35.1291 73.873L31.0039 78.0473L28.2529 76.3924L27.6058 76.7324C26.8734 77.1149 26.1306 77.4297 25.3969 77.6674L24.7039 77.8905L23.9177 81.0156H18.0836L17.2974 77.8892L16.6044 77.6661C15.8708 77.4284 15.1279 77.1136 14.3955 76.7311L13.7484 76.3911L10.9974 78.0459L6.87225 73.8716L8.50762 71.0892L8.17425 70.4358C7.79494 69.692 7.48519 68.9403 7.25025 68.1966L7.02713 67.4953L3.9375 66.7024V60.7989L7.02713 60.0047L7.24894 59.3034C7.48387 58.5597 7.79363 57.808 8.17294 57.0642L8.50631 56.4108L6.87094 53.6284L10.9961 49.4541L13.7471 51.1089L14.3942 50.7689C15.1266 50.3864 15.8694 50.0716 16.6031 49.8339L17.2961 49.6108L18.0823 46.4844H23.9164L24.7026 49.6108L25.3956 49.8339C26.1293 50.0716 26.8721 50.3864 27.6045 50.7689L28.2516 51.1089L31.0026 49.4541L35.1278 53.6284L33.4924 56.4108L33.8257 57.0642C34.2051 57.808 34.5148 58.5597 34.7497 59.3034L34.9716 60.0047L38.0625 60.7976V66.7024ZM40.6875 62.1416V58.7337L37.0099 57.7867C36.8537 57.3644 36.6791 56.938 36.4849 56.517L37.5428 54.7174C43.8336 54.4704 50.3147 53.3415 53.8138 51.2935V58.4375C53.8125 59.2145 49.8789 61.3634 40.6875 62.1416ZM37.2973 52.0678L31.416 46.1165L28.1492 48.0808C27.7331 47.8855 27.3131 47.7076 26.8944 47.5495L25.9573 43.8281H16.0414L15.1056 47.5495C14.8824 47.6345 14.6593 47.7381 14.4362 47.8337V40.5636C18.9932 43.0698 28.4287 43.8281 34.125 43.8281C39.8213 43.8281 49.2568 43.0698 53.8125 40.5623V47.8125C53.8125 48.9281 48.1871 51.6707 37.2973 52.0678ZM80.0625 81.0156H64.3125V57.1094H80.0625V81.0156ZM74.8125 42.5C74.8125 43.9649 73.6352 45.1562 72.1875 45.1562C70.7398 45.1562 69.5625 43.9649 69.5625 42.5C69.5625 41.0351 70.7398 39.8438 72.1875 39.8438C73.6352 39.8438 74.8125 41.0351 74.8125 42.5ZM64.3125 3.98438H80.0625V27.8906H64.3125V3.98438Z" fill="black"/>
<path d="M21 51.7969C14.4874 51.7969 9.1875 57.1585 9.1875 63.75C9.1875 70.3415 14.4874 75.7031 21 75.7031C27.5126 75.7031 32.8125 70.3415 32.8125 63.75C32.8125 57.1585 27.5126 51.7969 21 51.7969ZM21 73.0469C15.9338 73.0469 11.8125 68.8752 11.8125 63.75C11.8125 58.6248 15.9338 54.4531 21 54.4531C26.0662 54.4531 30.1875 58.6248 30.1875 63.75C30.1875 68.8752 26.0662 73.0469 21 73.0469Z" fill="black"/>
<path d="M21 57.1094C17.3814 57.1094 14.4375 60.0884 14.4375 63.75C14.4375 67.4116 17.3814 70.3906 21 70.3906C24.6186 70.3906 27.5625 67.4116 27.5625 63.75C27.5625 60.0884 24.6186 57.1094 21 57.1094ZM21 67.7344C18.8291 67.7344 17.0625 65.9467 17.0625 63.75C17.0625 61.5533 18.8291 59.7656 21 59.7656C23.1709 59.7656 24.9375 61.5533 24.9375 63.75C24.9375 65.9467 23.1709 67.7344 21 67.7344Z" fill="black"/>
<path d="M66.9375 59.7656H77.4375V62.4219H66.9375V59.7656Z" fill="black"/>
<path d="M77.4375 70.3906H66.9375V78.3594H77.4375V70.3906ZM74.8125 75.7031H69.5625V73.0469H74.8125V75.7031Z" fill="black"/>
<path d="M66.9375 6.64062H77.4375V9.29688H66.9375V6.64062Z" fill="black"/>
<path d="M66.9375 11.9531H77.4375V14.6094H66.9375V11.9531Z" fill="black"/>
<path d="M66.9375 17.2656H77.4375V19.9219H66.9375V17.2656Z" fill="black"/>
<path d="M66.9375 22.5781H77.4375V25.2344H66.9375V22.5781Z" fill="black"/>
<path d="M66.9375 65.0781H77.4375V67.7344H66.9375V65.0781Z" fill="black"/>
<path d="M45.9375 25.2344H48.5625V27.8906H45.9375V25.2344Z" fill="black"/>
<path d="M40.6875 25.2344H43.3125V27.8906H40.6875V25.2344Z" fill="black"/>
<path d="M35.4375 25.2344H38.0625V27.8906H35.4375V25.2344Z" fill="black"/>
<path d="M19.6875 25.2344H22.3125V27.8906H19.6875V25.2344Z" fill="black"/>
<path d="M30.1875 25.2344H32.8125V27.8906H30.1875V25.2344Z" fill="black"/>
<path d="M24.9375 25.2344H27.5625V27.8906H24.9375V25.2344Z" fill="black"/>
</svg>
