<svg width="70" height="70" viewBox="0 0 70 70" fill="none" xmlns="http://www.w3.org/2000/svg">
<g clip-path="url(#clip0)">
<path d="M68.6716 21.8345L36.6797 0.506405C35.5876 -0.165755 34.4222 -0.171842 33.3203 0.506405L1.32818 21.8345C0.507807 22.3812 0 23.3581 0 24.3344V45.6625C0 46.639 0.507807 47.6156 1.32833 48.1623L33.3204 69.4936C34.4123 70.1657 35.5778 70.1717 36.6797 69.4936L68.6716 48.1623C69.492 47.616 70 46.639 70 45.6625V24.3344C70 23.3581 69.492 22.3812 68.6716 21.8345ZM38.0079 8.63105L61.5623 24.3344L51.0544 31.3659L38.0079 22.6548V8.63105ZM31.9921 8.63105V22.6546L18.945 31.3657L8.43746 24.3342L31.9921 8.63105ZM6.01546 29.9593L13.5546 34.9985L6.01546 40.0376V29.9593ZM31.9921 61.3659L8.43746 45.6625L18.945 38.6312L31.9921 47.3424V61.3659ZM35 42.1075L24.375 34.9985L35 27.889L45.625 34.9984L35 42.1075ZM38.0079 61.3659V47.3425L51.0544 38.6314L61.5623 45.6626L38.0079 61.3659ZM63.9844 40.0376L56.4452 34.9985L63.9844 29.9593V40.0376Z" fill="white"/>
</g>
<defs>
<clipPath id="clip0">
<rect width="70" height="70" fill="white"/>
</clipPath>
</defs>
</svg>
