<svg width="277" height="99" viewBox="0 0 277 99" fill="none" xmlns="http://www.w3.org/2000/svg">
<path d="M2.11687 3.46875L4.46179 29.7405L14.9843 32.647L25.5359 29.7438L27.8831 3.46875H2.11687ZM23.0058 9.68883L22.8588 11.3698L22.7941 12.1406H10.4508L10.7454 15.4219H22.5007L22.4219 16.2354L21.6642 24.7008L21.6084 25.2328L15 27.049V27.0495L14.992 27.0537L8.38804 25.3139L7.93968 20.3438H11.1776L11.407 22.9029L14.9899 23.8594H15V23.7314L18.5988 22.8232L18.9748 18.7031H7.79554L7.00265 9.76945L6.92554 8.85938H23.0831L23.0058 9.68883Z" fill="#C62D2D"/>
<path d="M37.0531 3.23438L39.4098 29.6913L49.9843 32.6398L60.5884 29.6805L62.9469 3.23438H37.0531ZM58.051 9.29578L57.2666 18.1095L57.2689 18.157L57.2656 18.2665V18.2655L56.7083 24.4282L56.6469 24.9757L50 26.8141V26.8144L49.9948 26.8188L43.3595 24.9701L42.9102 19.875H46.164L46.3948 22.4658L50.0009 23.4431L50 23.445V23.4445L53.6195 22.4534L54.002 18.2344H46.4356L46.3707 17.5212L46.2228 15.8503L46.1452 14.9531H54.2895L54.5858 11.6719H42.1812L42.1163 10.9591L41.9687 9.28781L41.8909 8.39062H58.1286L58.051 9.29578Z" fill="#C62D2D"/>
<path d="M70.4688 3.23438V32.5312H99.7656V3.23438H70.4688ZM85.9654 28.1984C85.533 29.077 84.7075 29.6543 83.751 29.933C82.2812 30.2705 80.8755 30.078 79.8297 29.4504C79.1298 29.021 78.5833 28.3601 78.2123 27.5986L80.4435 26.2322C80.463 26.2404 80.5216 26.3463 80.5998 26.4832C80.8844 26.9599 81.1298 27.2974 81.6121 27.5344C82.086 27.6961 83.1264 27.7995 83.5281 26.9655C83.7735 26.5413 83.6955 25.1777 83.6955 23.6691C83.6952 21.2984 83.7063 18.9375 83.7063 16.5938H86.4505C86.4505 19.1719 86.4646 21.6136 86.4505 24.1294C86.4564 25.6716 86.5902 27.0464 85.9654 28.1984ZM97.3499 27.423C96.396 30.686 91.0776 30.792 88.9523 28.6362C88.5032 28.1287 88.2217 27.8637 87.9538 27.278C89.0833 26.6283 89.0833 26.6283 90.1823 25.9924C90.7792 26.91 91.3312 27.4146 92.3242 27.6211C93.6714 27.7856 95.0268 27.3227 94.7228 25.8919C94.4104 24.7233 91.9642 24.439 90.2995 23.1893C88.6094 22.0542 88.2133 19.2961 89.6022 17.7202C90.0651 17.1373 90.8545 16.7023 91.6827 16.4932L92.5471 16.3814C94.2067 16.3479 95.2441 16.7862 96.0055 17.6365C96.2174 17.8512 96.3904 18.0827 96.7138 18.5845C95.8298 19.148 95.8326 19.1426 94.5662 19.9624C94.2958 19.3798 93.847 19.0141 93.3726 18.8552C92.6362 18.6321 91.7076 18.8747 91.5149 19.6528C91.4481 19.8926 91.462 20.1157 91.5681 20.5118C91.8665 21.1922 92.8677 21.488 93.7659 21.9007C96.3512 22.9493 97.2243 24.0736 97.439 25.4119C97.6457 26.5641 97.3891 27.3115 97.3499 27.423Z" fill="#C62D2D"/>
<path fill-rule="evenodd" clip-rule="evenodd" d="M112.5 13C113.5 7.00023 116 4 120 4C126 4 126.75 10.75 129.75 11.875C131.75 12.6252 133.5 11.5002 135 8.5C134 14.4998 131.5 17.5 127.5 17.5C121.5 17.5 120.75 10.75 117.75 9.625C115.75 8.87476 114 9.99977 112.5 13ZM105 26.5C106 20.5002 108.5 17.5 112.5 17.5C118.5 17.5 119.25 24.25 122.25 25.375C124.25 26.1252 126 25.0002 127.5 22C126.5 27.9998 124 31 120 31C114 31 113.25 24.25 110.25 23.125C108.25 22.3748 106.5 23.4998 105 26.5Z" fill="url(#paint0_linear)"/>
<path d="M157.928 17.2824C157.368 17.0858 156.562 17.128 155.509 17.128H151.28V23.016H155.803C156.509 23.016 157.005 22.9354 157.291 22.879C157.795 22.7828 158.216 22.5964 158.555 22.3716C158.893 22.1474 159.171 21.8072 159.389 21.3781C159.607 20.9491 159.716 20.447 159.716 19.8856C159.716 19.2282 159.559 18.7234 159.242 18.238C158.927 17.7526 158.489 17.479 157.928 17.2824ZM157.348 14.5903C157.904 14.4141 158.323 14.1064 158.605 13.6976C158.887 13.2885 159.028 12.7681 159.028 12.1503C159.028 11.5651 158.896 11.046 158.633 10.6005C158.37 10.1551 157.994 9.98278 157.505 9.81818C157.016 9.65408 156.178 9.704 154.99 9.704H151.28V14.824H155.261C156.231 14.824 156.926 14.7267 157.348 14.5903ZM170 5.256C170 2.90541 168.214 1 166.01 1H143.99C141.786 1 140 2.90541 140 5.256V28.744C140 31.0946 141.786 33 143.99 33H166.01C168.214 33 170 31.0946 170 28.744V5.256ZM161.493 22.1827C161.166 22.8926 160.761 23.4399 160.28 23.825C159.799 24.21 159.195 24.5366 158.47 24.7332C157.744 24.9301 156.855 25.064 155.803 25.064H149.12V7.4H155.701C156.964 7.4 157.977 7.5559 158.74 7.91251C159.504 8.26963 160.101 8.80774 160.534 9.54963C160.966 10.2915 161.183 11.0618 161.183 11.8718C161.183 12.6257 160.991 13.3331 160.607 13.9987C160.224 14.6648 159.645 15.2003 158.87 15.6094C159.87 15.9222 160.639 16.4552 161.177 17.2089C161.714 17.9628 161.983 18.8529 161.983 19.8795C161.983 20.7056 161.82 21.4731 161.493 22.1827Z" fill="#C62D2D"/>
<path fill-rule="evenodd" clip-rule="evenodd" d="M175.286 14.4096C175.286 14.59 175.334 14.7091 175.361 14.8248C175.539 15.5774 175.919 16.2233 176.371 16.8124C177.015 17.652 177.803 18.3279 178.611 18.9635C179.311 19.5147 180.025 20.0536 180.729 20.6006C180.849 20.6946 180.963 20.8026 181.094 20.9178C180.982 20.9845 180.888 21.0433 180.79 21.0974C179.863 21.6127 178.97 22.1903 178.147 22.89C177.651 23.3119 177.171 23.7602 176.833 24.346C176.288 25.2882 176.095 26.292 176.501 27.3638C176.62 27.6769 176.801 27.9474 177.056 28.1472C177.139 28.2119 177.231 28.2761 177.328 28.3012C177.576 28.3651 177.829 28.4069 178.08 28.4575L178.791 28.457C179.577 28.3802 180.292 28.0854 180.939 27.5968C181.95 26.8332 182.631 25.8094 182.923 24.4953C183.136 23.5402 183.145 22.5842 182.894 21.6335C182.871 21.5452 182.841 21.4587 182.811 21.3733C182.781 21.2878 182.745 21.2047 182.703 21.0982L184.314 20.0836L184.338 20.1062C184.309 20.2111 184.278 20.3158 184.251 20.4218C184.06 21.1875 183.933 21.9665 183.978 22.7612C184.027 23.608 184.243 24.4006 184.696 25.1081C185.062 25.6803 185.934 25.7016 186.323 25.1273C186.461 24.9233 186.595 24.7101 186.696 24.4825C186.958 23.8885 187.202 23.2839 187.453 22.6835L187.496 22.5736C187.478 22.8579 187.457 23.1076 187.448 23.3575C187.433 23.7478 187.454 24.1358 187.575 24.5071C187.68 24.8248 187.857 25.0621 188.189 25.104C188.417 25.1325 188.598 25.0185 188.765 24.8741C189.026 24.6485 189.238 24.3698 189.396 24.0532C189.841 23.1574 190.299 22.267 190.703 21.3486C191.14 20.3553 191.522 19.333 191.927 18.3228L191.994 18.1437C192.09 18.556 192.157 18.9599 192.28 19.3423C192.423 19.7859 192.6 20.2191 192.793 20.6402C192.884 20.839 192.873 20.9681 192.747 21.1349C192.218 21.8328 191.699 22.5392 191.178 23.2449C191.063 23.4007 190.949 23.5592 190.853 23.7294C190.795 23.8328 190.757 23.9588 190.74 24.0794C190.709 24.3098 190.839 24.532 191.065 24.5851C191.27 24.6336 191.489 24.6516 191.699 24.6346C192.425 24.5761 193.084 24.2972 193.667 23.8246C194.422 23.2123 194.664 22.3768 194.481 21.3866C194.432 21.1179 194.344 20.8567 194.259 20.5978C194.221 20.4811 194.219 20.3992 194.288 20.2904C194.892 19.3469 195.407 18.3459 195.887 17.3218C195.906 17.2815 195.925 17.2412 195.959 17.1981C196.114 18.0834 196.348 18.9366 196.767 19.7107C196.553 19.9363 196.341 20.1408 196.15 20.3661C195.728 20.8624 195.363 21.4012 195.172 22.0584C195.09 22.3417 195.027 22.6296 195.063 22.9321C195.12 23.4019 195.472 23.7073 195.894 23.6003C196.797 23.3714 197.577 22.9054 198.147 22.0799C198.53 21.5241 198.565 20.9042 198.404 20.2547C198.36 20.0782 198.308 19.9045 198.252 19.702C198.475 19.6263 198.692 19.5355 198.917 19.4793C200.084 19.1878 201.238 19.2386 202.363 19.7C203.019 19.9694 203.549 20.4202 203.864 21.1295C204.248 21.9965 204.036 22.8192 203.289 23.3673C203.22 23.4184 203.14 23.4586 203.082 23.5225C203.047 23.5618 203.026 23.6403 203.034 23.6945C203.039 23.726 203.115 23.7655 203.159 23.765C203.405 23.763 203.604 23.6221 203.795 23.4774C204.273 23.1148 204.622 22.627 204.698 21.9847L204.712 21.9365L204.694 21.5182C204.687 21.4941 204.7 21.4703 204.698 21.452C204.596 20.5167 204.14 19.7913 203.476 19.2227C202.708 18.5645 201.8 18.2935 200.84 18.2507C200.058 18.2158 199.289 18.3431 198.551 18.6364C198.341 18.7198 198.133 18.8185 197.921 18.9117C197.893 18.8555 197.862 18.8016 197.837 18.7459C197.62 18.2594 197.357 17.7945 197.299 17.2366C197.258 16.8404 197.207 16.4447 197.293 16.0529C197.376 15.676 197.484 15.3054 197.585 14.9336C197.638 14.7422 197.601 14.6349 197.434 14.5487C197.376 14.5187 197.313 14.4925 197.25 14.4825C196.84 14.4173 196.435 14.4545 196.038 14.5811C195.897 14.626 195.795 14.7122 195.764 14.8826C195.746 14.9803 195.71 15.074 195.684 15.1705C195.58 15.5715 195.507 15.9803 195.339 16.3624C194.919 17.3208 194.439 18.243 193.947 19.1585C193.894 19.2573 193.838 19.3543 193.771 19.4742C193.599 19.079 193.415 18.7244 193.359 18.3087C193.296 17.8386 193.246 17.3693 193.353 16.9028C193.432 16.5548 193.536 16.2133 193.632 15.87C193.677 15.7068 193.656 15.6211 193.521 15.5351C193.453 15.4917 193.376 15.4532 193.299 15.4407C192.874 15.3716 192.455 15.4078 192.044 15.5531C191.917 15.5982 191.85 15.6883 191.811 15.832C191.697 16.2559 191.599 16.69 191.439 17.0932C190.789 18.7251 190.12 20.3487 189.452 21.9719C189.312 22.3109 189.149 22.638 188.991 22.968C188.952 23.0517 188.894 23.1253 188.844 23.2038C188.804 23.1523 188.789 23.1169 188.789 23.0814C188.79 22.8728 188.767 22.6581 188.804 22.4564C188.913 21.8462 189.04 21.2393 189.173 20.6348C189.284 20.1354 189.412 19.6407 189.534 19.1447C189.575 18.9787 189.576 18.8234 189.467 18.6838C189.284 18.4501 188.901 18.3987 188.674 18.5789L188.574 18.641L188.593 18.4639C188.641 18.0844 188.651 17.7062 188.556 17.3323C188.437 16.8663 188.133 16.5982 187.692 16.6131C187.486 16.62 187.27 16.6585 187.079 16.7406C186.278 17.0844 185.662 17.6934 185.137 18.4259C185.09 18.4924 185.027 18.553 184.96 18.5938C184.282 19.0054 183.602 19.4118 182.922 19.8198L182.165 20.2737C181.962 20.0618 181.777 19.8419 181.568 19.6553C180.929 19.0846 180.28 18.5281 179.636 17.9638C179.065 17.4637 178.513 16.9428 178.09 16.2805C177.775 15.7878 177.573 15.2487 177.553 14.6396C177.529 13.8633 177.73 13.1541 178.091 12.4939C178.552 11.6491 179.182 10.9712 179.875 10.3572C180.607 9.70796 181.399 9.15678 182.22 8.65359C183.369 7.94973 184.55 7.32671 185.817 6.91538C187.116 6.49353 188.434 6.25207 189.793 6.4204C190.328 6.4866 190.847 6.62054 191.323 6.90665C191.688 7.12553 191.987 7.41216 192.126 7.86018C192.264 8.30102 192.26 8.74776 192.164 9.19553C191.971 10.1024 191.518 10.8498 190.947 11.5178C190.011 12.6127 188.869 13.3581 187.583 13.8505C186.842 14.1346 186.078 14.3129 185.295 14.385C184.655 14.4438 184.029 14.3817 183.423 14.1382C183.022 13.9768 182.673 13.7299 182.392 13.3717C182.342 13.3075 182.278 13.238 182.184 13.2981C182.093 13.3571 182.076 13.4525 182.107 13.5493C182.159 13.7099 182.206 13.8772 182.286 14.0209C182.487 14.3814 182.78 14.6429 183.102 14.8672C183.722 15.2985 184.414 15.4435 185.132 15.4771C186.221 15.5287 187.284 15.3506 188.332 15.0306C189.828 14.5739 191.129 13.7671 192.172 12.4944C193.041 11.4346 193.661 10.2386 193.794 8.79446C193.859 8.08958 193.79 7.39907 193.488 6.75603C193.161 6.05936 192.641 5.54128 192.02 5.18435C191.115 4.66474 190.138 4.36221 189.13 4.36221H188.119C186.898 4.36221 185.718 4.74531 184.57 5.20231C183.702 5.54847 182.85 5.95698 182.023 6.40911C180.222 7.39419 178.545 8.582 177.168 10.2153C176.482 11.0289 175.901 11.9268 175.566 12.984C175.469 13.2934 175.376 13.6252 175.306 13.9452L175.286 14.4096ZM181.831 23.1861C181.753 24.3303 181.279 25.2579 180.505 26.0093C180.07 26.4316 179.57 26.7324 178.988 26.8381C178.777 26.8763 178.562 26.8855 178.357 26.7898C178.065 26.6533 178 26.3698 177.994 26.0678C177.985 25.5864 178.139 25.1512 178.351 24.737C178.626 24.1971 179.03 23.7856 179.462 23.4012C180.141 22.7953 180.879 22.2827 181.634 21.7987L181.691 21.773C181.808 22.2452 181.863 22.7114 181.831 23.1861ZM187.727 18.2135C187.672 18.5789 187.603 18.9445 187.506 19.2986C187.169 20.5244 186.736 21.7122 186.268 22.8841C186.181 23.1009 186.055 23.2988 185.946 23.5043C185.929 23.5361 185.904 23.5636 185.88 23.59C185.744 23.7365 185.616 23.7288 185.547 23.5372C185.468 23.3144 185.419 23.0761 185.376 22.8402C185.348 22.6819 185.355 22.5156 185.346 22.3535C185.355 21.2003 185.676 20.1524 186.222 19.1768C186.446 18.7744 186.691 18.3911 187.065 18.1365C187.18 18.0582 187.309 17.9954 187.439 17.9553C187.638 17.894 187.76 17.9949 187.727 18.2135ZM191.75 23.8248L193.196 21.9765C193.256 22.6629 192.19 24.0332 191.75 23.8248ZM196.368 22.5811C196.266 22.6452 196.154 22.6914 196.05 22.7507C195.954 22.8051 195.922 22.7502 195.919 22.6599C195.918 22.5985 195.926 22.5344 195.941 22.4748C196.136 21.721 196.496 21.0774 197.03 20.5539L197.068 20.5329C197.322 21.3117 197.028 22.1669 196.368 22.5811Z" fill="#C62D2D"/>
<path fill-rule="evenodd" clip-rule="evenodd" d="M225.022 30.5838C233.055 30.5716 239.558 24.037 239.558 15.9763C239.558 8.04672 233.085 1.5161 225.352 1.37805C217.23 1.23321 210.444 7.82336 210.442 15.8148C210.439 24.0365 216.913 30.5955 225.022 30.5838ZM224.998 2.08516C232.711 2.08258 238.856 8.34883 238.854 16.2133C238.851 23.6381 232.543 29.8492 225.004 29.8509C217.323 29.8525 211.147 23.6252 211.147 15.8802C211.147 8.335 217.42 2.08774 224.998 2.08516ZM219.177 9.41313C219.304 9.83336 218.951 9.97961 218.575 10.0089C218.18 10.0394 217.786 10.0691 217.327 10.1041C218.84 14.612 220.331 19.0532 221.857 23.5977C221.965 23.4198 222.01 23.3697 222.03 23.3111C222.867 20.8075 223.71 18.3056 224.526 15.7949C224.601 15.5659 224.564 15.2627 224.482 15.0273C224.05 13.7805 223.533 12.5608 223.154 11.2989C222.895 10.435 222.551 9.87602 221.53 9.9761C221.356 9.99321 221.144 9.61891 220.949 9.42555C221.185 9.28493 221.419 9.02618 221.656 9.02266C223.736 8.99102 225.816 8.99102 227.895 9.02454C228.133 9.02852 228.367 9.29407 228.603 9.43821C228.397 9.62665 228.219 9.9093 227.977 9.98219C227.591 10.0989 227.161 10.0769 226.698 10.1181C228.213 14.624 229.697 19.0377 231.233 23.6088C231.92 21.3269 232.559 19.2316 233.181 17.1309C233.735 15.2556 233.405 13.5044 232.402 11.8527C232.101 11.3561 231.731 10.8742 231.56 10.3326C231.366 9.71641 231.204 9.01493 231.307 8.39688C231.482 7.34946 232.286 6.82938 233.373 6.72977C227.422 1.20649 218.07 3.18368 214.624 9.18485C215.95 9.12368 217.217 9.04329 218.484 9.02594C218.724 9.0229 219.121 9.2254 219.177 9.41313ZM221.549 27.6876C221.521 27.7684 221.519 27.8584 221.497 27.9927C224.062 28.7038 226.578 28.6525 229.152 27.7851L225.219 17.0132C223.961 20.672 222.754 24.1792 221.549 27.6876ZM219.567 27.2006L213.641 10.9466C210.968 16.1681 213.002 24.1345 219.567 27.2006ZM237.48 16.7563C237.667 14.2874 236.816 10.8691 236.08 10.3989C235.998 11.3071 236.055 12.3175 235.795 13.2381C235.181 15.4073 234.431 17.5387 233.709 19.6759C232.924 21.9991 232.108 24.3116 231.305 26.6289C235.077 24.3932 237.149 21.0934 237.48 16.7563Z" fill="#C62D2D"/>
<path d="M257.39 16H262.846L259.946 9.93508L257.39 16ZM259.955 1.24047L246.067 6.12813L248.262 24.3243L259.97 30.7595L271.739 24.2373L273.933 6.04164L259.955 1.24047ZM256.26 18.5781L254.558 22.8381L251.375 22.8513L259.955 3.84836L259.938 3.8125H259.923L259.923 3.78133L259.938 3.8125H259.971L260 3.74828V3.8125H259.971L259.955 3.84836L268.905 22.9305L265.841 22.8632L263.956 18.5085L259.931 18.5277" fill="#C62D2D"/>
<path d="M15.4688 50.9789V65.6273H44.7656V36.3305H15.4688V50.9789ZM39.0773 49.807C39.779 49.9699 40.4168 50.3369 40.9102 50.8617C41.1818 51.1445 41.4179 51.4593 41.6133 51.7992C41.6133 51.8367 40.3477 52.6922 39.5766 53.1703C39.5484 53.1891 39.4359 53.0672 39.3117 52.882C39.171 52.6391 38.9709 52.4359 38.7304 52.2912C38.4898 52.1465 38.2165 52.0651 37.9359 52.0547C37.0477 51.9937 36.4758 52.4601 36.4805 53.2266C36.4731 53.4174 36.5168 53.6067 36.607 53.775C36.8016 54.1805 37.1648 54.4219 38.3039 54.9141C40.4016 55.8164 41.2992 56.4117 41.857 57.2578C42.4805 58.1953 42.6187 59.7094 42.1969 60.8297C41.7281 62.0484 40.5797 62.8758 38.9555 63.15C38.2136 63.235 37.4641 63.2271 36.7242 63.1266C35.595 62.9434 34.5534 62.4057 33.75 61.5914C33.4805 61.2937 32.9555 60.518 32.9883 60.4617C33.0738 60.3982 33.1639 60.341 33.2578 60.2906L34.3359 59.6719L35.1773 59.1844L35.3531 59.4445C35.6498 59.8689 36.0273 60.2305 36.4641 60.5086C37.4016 61.0008 38.6812 60.9328 39.3141 60.3633C39.5265 60.1546 39.6591 59.878 39.6886 59.5816C39.7182 59.2853 39.6429 58.9879 39.4758 58.7414C39.2414 58.4156 38.7727 58.1414 37.4625 57.5695C35.9508 56.918 35.2992 56.5148 34.7039 55.8726C34.3323 55.4489 34.0579 54.9489 33.9 54.4078C33.7822 53.7896 33.7648 53.1565 33.8484 52.5328C34.1602 51.0726 35.2547 50.0531 36.8531 49.7508C37.5934 49.6592 38.3432 49.6797 39.0773 49.8117V49.807ZM32.2008 51.0351V52.2351H28.3969V63.0703H25.6992V52.2328H21.8859V51.0609C21.8757 50.6575 21.8867 50.2538 21.9188 49.8516C21.9328 49.8328 24.2625 49.8234 27.075 49.8281H32.1867L32.2008 51.0351Z" fill="#C62D2D"/>
<path d="M65.5 38C58.5967 38 53 44.2681 53 52C53 59.7319 58.5967 66 65.5 66C72.4033 66 78 59.7319 78 52C78 44.2681 72.4033 38 65.5 38ZM62.2474 54.7276C61.9491 55.3443 61.6179 55.5989 61.2531 55.8612C60.8883 56.1239 60.424 56.0696 59.8595 56.0696H58.5801L58.2256 60.5915H56.7317L58.0647 45.2173H60.9374C61.8016 45.2173 62.432 45.7667 62.8283 46.7692C63.2246 47.7716 63.3437 49.1947 63.1857 50.9912C63.1205 51.7314 63.0106 52.4196 62.8555 53.0328C62.7002 53.6464 62.4975 54.2193 62.2474 54.7276ZM66.6077 56.0696L67.1972 49.5492C67.2643 48.7859 67.2397 48.2189 67.1233 47.9417C67.0067 47.664 66.7587 47.4782 66.3796 47.4782H65.1949L64.4316 56.0696H62.9494L64.2824 41.1476H65.7646L65.4102 45.2173H66.7305C67.5614 45.2173 68.1343 45.5858 68.4496 46.2261C68.7648 46.8664 68.8594 47.7436 68.7333 49.1779L68.1132 56.0696H66.6077ZM74.8448 51.0151C74.7798 51.7554 74.6697 52.4318 74.5148 53.0445C74.3597 53.6581 74.1572 54.2193 73.9069 54.7276C73.6086 55.3443 73.2772 55.5989 72.9126 55.8612C72.5479 56.1239 72.0833 56.0696 71.5188 56.0696H70.2394L69.885 60.5915H68.3912L69.724 45.2173H72.5968C73.4611 45.2173 74.0915 45.7667 74.4876 46.7692C74.8835 47.7716 75.0028 49.2191 74.8448 51.0151ZM72.0307 47.4782H71.0075L70.4495 53.8087H71.3584C71.9603 53.8087 72.4092 53.6776 72.7039 53.1757C72.9989 52.6747 73.1976 51.8969 73.3009 50.7244C73.3999 49.598 73.3549 48.7194 73.1659 48.2564C72.9766 47.7934 72.5983 47.4782 72.0307 47.4782ZM60.3714 47.4782H59.348L58.7901 53.8087H59.6987C60.3008 53.8087 60.7495 53.6776 61.0444 53.1757C61.3392 52.6747 61.5381 51.8969 61.6412 50.7244C61.7402 49.598 61.6952 48.7194 61.5062 48.2564C61.3171 47.7934 60.939 47.4782 60.3714 47.4782Z" fill="#C62D2D"/>
<path fill-rule="evenodd" clip-rule="evenodd" d="M88.9689 36.4029C88.7048 36.4235 88.4453 36.4202 88.1896 36.4903C87.6302 36.6438 87.133 36.8892 86.6945 37.2675C86.4367 37.4897 86.2117 37.7292 86.0207 38.0114C85.7259 38.4471 85.525 38.9154 85.4242 39.4425C85.4645 39.513 85.507 39.5871 85.552 39.6623C85.8377 40.14 86.1236 40.6144 86.41 41.0916L87.1628 42.3434C87.3944 42.7291 87.6255 43.1152 87.8566 43.5009L88.9366 45.3028C89.182 45.7125 89.4276 46.1224 89.6732 46.5319C90.0311 47.1284 90.3899 47.7244 90.7473 48.3211L92.062 50.5174C92.4409 51.15 92.8206 51.7821 93.2003 52.4142L93.2509 52.4878C93.306 52.5054 93.3498 52.4904 93.3953 52.4796C93.8955 52.3596 94.3956 52.2403 94.8958 52.1208C95.707 51.927 96.5181 51.7338 97.3293 51.5398L98.5998 51.2358C99.4199 51.0398 100.24 50.8444 101.06 50.648C101.889 50.4497 102.718 50.2505 103.547 50.052C103.966 49.9514 104.385 49.8513 104.805 49.7513C105.616 49.5577 106.427 49.3645 107.238 49.1714L109.889 48.5402L110.032 48.5016L109.993 48.424L109.269 47.4016L108.555 46.3903L107.791 45.3113L107.061 44.277L106.337 43.2548L105.59 42.1985C105.346 41.854 105.101 41.5099 104.857 41.1656L104.471 40.6205C104.412 40.5368 104.365 40.4466 104.333 40.3488C104.257 40.1119 104.344 39.9541 104.482 39.8377C104.572 39.762 104.675 39.7064 104.787 39.6736C104.942 39.6279 105.099 39.5841 105.258 39.5541C105.576 39.4938 105.897 39.4427 106.217 39.3895L107.3 39.2128C107.529 39.1751 107.757 39.1355 107.986 39.0968C108.296 39.0443 108.607 38.9916 108.917 38.9398C109.219 38.8891 109.521 38.839 109.822 38.7893L110.81 38.6278L111.495 38.5127C111.756 38.4691 112.016 38.4258 112.277 38.3831C112.601 38.3302 112.926 38.2767 113.251 38.2259C113.444 38.1956 113.638 38.1851 113.83 38.2404C113.974 38.2819 114.106 38.3494 114.228 38.4356L114.397 38.5535C114.414 38.5146 114.389 38.4935 114.378 38.4713C114.134 37.9779 113.802 37.5537 113.38 37.2005C112.987 36.8719 112.546 36.6302 112.059 36.4763C111.771 36.3851 111.475 36.4275 111.173 36.4048L88.9689 36.4029ZM98.0521 65.7656C98.0376 65.7656 98.0247 65.6602 98.0083 65.6323C97.6567 65.0323 97.3014 64.3882 96.9541 63.7861C96.5165 63.0272 96.0829 62.2659 95.6516 61.5033C95.1911 60.6881 94.7345 59.8706 94.2775 59.0536C93.843 58.2769 93.4098 57.4995 92.977 56.722C92.7156 56.2521 92.4559 55.7813 92.1948 55.3111L92.1255 55.2035L91.9984 55.2286C91.7472 55.2935 91.4964 55.3589 91.2456 55.425C90.8964 55.5169 90.5474 55.6104 90.198 55.7016C89.4135 55.9057 88.6291 56.1087 87.8446 56.3121C87.0468 56.5193 86.2155 56.727 85.4174 56.9332C85.3689 56.9456 85.4688 56.9498 85.2344 56.958V61.9139C85.3309 62.0677 85.3218 61.9952 85.3279 62.0459C85.3464 62.1926 85.3764 62.3405 85.4022 62.4858C85.4988 63.0272 85.716 63.5229 86.0301 63.9743C86.4906 64.6366 87.104 65.1101 87.8554 65.3998C88.1237 65.5029 88.4038 65.5755 88.6902 65.6107L88.9811 65.6876" fill="#C62D2D"/>
<path fill-rule="evenodd" clip-rule="evenodd" d="M86.1662 54.2208C87.0895 54.0012 88.0129 53.7818 88.9361 53.5627C89.3416 53.4666 89.7473 53.3716 90.1527 53.2751C90.3555 53.2268 90.5587 53.1809 90.7598 53.1265C90.9388 53.0782 90.9609 53.0189 90.8688 52.8574C90.7356 52.624 90.6002 52.392 90.4654 52.1592L89.2785 50.1155L88.0921 48.0715C87.6897 47.3782 87.2868 46.6849 86.8841 45.9919C86.5394 45.3989 86.1946 44.8059 85.8501 44.213C85.701 43.9566 85.5201 43.6995 85.3703 43.4433C85.3424 43.3966 85.4688 43.3409 85.2344 43.316V54.4245C85.2344 54.417 85.3405 54.4106 85.3764 54.402L86.1662 54.2208ZM114.584 62.1609C114.222 62.2896 113.86 62.4192 113.498 62.5488C112.674 62.8441 111.85 63.1395 111.027 63.435C110.569 63.5993 110.112 63.7655 109.654 63.9291C108.721 64.2621 107.787 64.594 106.854 64.9263C106.313 65.119 105.771 65.3571 105.231 65.5507C105.083 65.6039 104.937 65.7656 104.79 65.7656H110.999L111.132 65.689C111.29 65.6822 111.445 65.6353 111.601 65.607C112.238 65.4905 112.809 65.2148 113.314 64.812C113.703 64.5023 114.018 64.1238 114.266 63.6921C114.52 63.2477 114.672 62.767 114.744 62.2622C114.751 62.2186 114.764 62.1691 114.728 62.1241C114.676 62.1202 114.631 62.1443 114.584 62.1609ZM114.051 53.824C113.777 53.4495 113.502 53.0756 113.229 52.7009C112.852 52.1836 112.476 51.6659 112.099 51.1484C111.946 50.9384 111.791 50.73 111.641 50.5177C111.596 50.4537 111.545 50.4366 111.475 50.4555L111.435 50.467C110.742 50.6355 110.048 50.8036 109.355 50.9716L108.112 51.2733C107.302 51.4699 106.491 51.6668 105.681 51.8637C104.88 52.0584 104.078 52.2534 103.277 52.4477L100.778 53.0529C99.9583 53.2519 99.1391 53.4516 98.3198 53.6508L95.9427 54.2278C95.5239 54.3295 95.1051 54.4308 94.6867 54.533C94.6251 54.548 94.5588 54.5517 94.4931 54.6014L94.5491 54.708C94.9 55.3141 95.2509 55.92 95.6027 56.5256C96.0009 57.2114 96.3993 57.897 96.7987 58.582C97.2379 59.3351 97.6783 60.0877 98.1182 60.8405C98.3711 61.2729 98.6223 61.7058 98.8773 62.137C99.1607 62.6161 99.445 63.0942 99.7335 63.5702C99.82 63.7125 99.9182 63.8484 100.017 63.9825C100.083 64.072 100.165 64.1484 100.262 64.2068C100.362 64.267 100.47 64.286 100.583 64.2605C100.642 64.2471 100.699 64.2279 100.756 64.2082L100.964 64.1309C101.723 63.8714 102.482 63.612 103.24 63.3534C103.833 63.1519 104.425 62.9513 105.018 62.7509C105.606 62.5514 106.194 62.3529 106.783 62.1544L108.534 61.5628C109.131 61.361 109.728 61.1592 110.325 60.957C111.058 60.7083 111.79 60.4587 112.524 60.2105C113.23 59.9714 113.938 59.7338 114.644 59.4952C114.688 59.4806 114.736 59.4745 114.771 59.427L114.776 59.3241C114.776 57.858 114.776 56.3918 114.777 54.9258C114.777 54.8475 114.756 54.7842 114.71 54.7212C114.487 54.4238 114.27 54.1233 114.051 53.824ZM113.929 40.0104C113.764 39.802 113.555 39.7359 113.298 39.803C113.186 39.8323 113.071 39.8508 112.957 39.8716C112.584 39.9401 112.21 40.0073 111.836 40.0751C111.289 40.1745 110.742 40.2748 110.195 40.3732C109.762 40.451 109.329 40.5277 108.895 40.6036L107.157 40.9078C107.084 40.9205 107.01 40.9331 106.94 40.9556C106.838 40.9884 106.808 41.0527 106.855 41.149C106.893 41.2277 106.941 41.303 106.992 41.3738C107.352 41.8692 107.713 42.3635 108.074 42.858C108.572 43.5398 109.07 44.2214 109.568 44.9027C109.99 45.4793 110.411 46.0559 110.833 46.6322C111.164 47.085 111.496 47.5378 111.828 47.9904L111.893 48.0696L114.769 47.3588L114.776 47.2097C114.776 45.2149 114.776 43.2202 114.777 41.2252C114.777 41.137 114.756 41.0663 114.7 40.9964C114.459 40.691 114.221 40.3821 113.982 40.0746L113.929 40.0104ZM114.703 49.6763C114.268 49.7808 113.831 49.8802 113.385 49.998C113.433 50.0817 114.655 51.7313 114.726 51.8095L114.77 51.8341L114.775 51.7336L114.775 51.0391C114.775 50.6363 114.776 50.2334 114.775 49.8305C114.775 49.7815 114.789 49.7288 114.756 49.6791L114.703 49.6763Z" fill="#C62D2D"/>
<path d="M149.688 59.0719C148.62 59.3438 147.959 59.0836 147.366 58.193C146.034 56.1984 144.565 54.2953 143.147 52.357C142.964 52.1063 142.774 51.8602 142.537 51.5484C140.859 53.8125 139.184 55.9688 137.611 58.2117C137.048 59.0133 136.458 59.3625 135.408 59.0789L141.717 50.6109L135.844 42.9633C136.854 42.7664 137.552 42.8672 138.171 43.7719C139.537 45.7688 141.045 47.6695 142.547 49.6805C144.059 47.6766 145.547 45.7734 146.953 43.7953C147.518 42.9938 148.125 42.6891 149.14 42.9844C148.371 44.0039 147.619 45.007 146.862 46.0031C145.84 47.3461 144.837 48.7055 143.777 50.0203C143.4 50.4891 143.461 50.7938 143.798 51.2367C145.758 53.8125 147.694 56.4141 149.688 59.0719Z" fill="#C62D2D"/>
<path d="M120.312 50.4703C120.48 49.6242 120.593 48.7617 120.827 47.932C122.234 42.9094 127.999 40.8211 131.96 43.9336C134.28 45.7594 134.857 48.3328 134.742 51.2344H121.664C121.467 56.4398 125.215 59.5828 129.991 57.9797C131.667 57.4172 132.654 56.1047 133.148 54.4641C133.399 53.6414 133.814 53.5125 134.587 53.7469C134.191 55.8 133.294 57.5156 131.419 58.5891C128.606 60.1969 124.591 59.6766 122.48 57.443C121.233 56.1305 120.703 54.4969 120.469 52.732C120.434 52.4508 120.361 52.1742 120.305 51.8953C120.309 51.4203 120.312 50.9453 120.312 50.4703ZM121.687 50.1211H133.507C133.43 46.357 131.086 43.6828 127.882 43.6594C124.366 43.6312 121.84 46.2422 121.687 50.1211Z" fill="#C62D2D"/>
<path d="M181.409 43.1095L171.063 37.1084C170.411 36.7371 169.557 36.7371 168.9 37.1084L158.473 43.1095C157.801 43.4965 157.344 44.2238 157.344 45.0016V56.9881C157.344 57.7659 157.811 58.4934 158.483 58.8825L161.232 60.45C162.551 61.0997 162.916 61.0997 163.516 61.0997C165.47 61.0997 166.484 59.9187 166.484 57.8588V46.0252C166.484 45.8581 166.589 45.6094 166.424 45.6094H165.107C164.94 45.6094 164.609 45.8581 164.609 46.0249V57.8585C164.609 58.7716 163.762 59.6803 162.218 58.9085L159.377 57.2648C159.278 57.2109 159.219 57.1024 159.219 56.9881V45.0016C159.219 44.8887 159.327 44.7752 159.428 44.7173L169.829 38.7265C169.926 38.6714 170.064 38.6714 170.16 38.7265L180.464 44.7159C180.563 44.7752 180.547 44.8852 180.547 45.0016V56.9881C180.547 57.1024 180.569 57.2138 180.471 57.2688L170.128 63.2632C170.039 63.3164 169.924 63.3164 169.827 63.2632L167.174 61.6814C167.094 61.635 166.998 61.6184 166.921 61.6613C166.184 62.0791 166.047 62.1347 165.356 62.3745C165.185 62.4338 164.934 62.5366 165.451 62.8266L168.92 64.8783C169.251 65.0705 169.629 65.1703 170.009 65.1703C170.394 65.1703 170.77 65.0705 171.102 64.8783L181.409 58.8825C182.082 58.4906 182.422 57.7659 182.422 56.9881V45.0016C182.422 44.2238 182.082 43.4984 181.409 43.1095ZM173.217 55.0887C170.469 55.0887 169.864 54.3305 169.662 52.9638C169.638 52.8166 169.513 52.6406 169.363 52.6406H168.02C167.854 52.6406 167.72 52.8422 167.72 53.0077C167.72 54.7575 168.672 56.8777 173.217 56.8777C176.507 56.8777 178.394 55.5991 178.394 53.3365C178.394 51.0931 176.878 50.5043 173.687 50.082C170.462 49.6556 170.134 49.4402 170.134 48.6846C170.134 48.0616 170.412 47.2308 172.8 47.2308C174.934 47.2308 175.72 47.6888 176.044 49.1271C176.072 49.2623 176.195 49.3594 176.335 49.3594H177.684C177.766 49.3594 177.845 49.3259 177.904 49.2666C177.96 49.2028 177.99 49.1229 177.982 49.0371C177.773 46.56 176.128 45.4057 172.8 45.4057C169.839 45.4057 168.073 46.6559 168.073 48.7514C168.073 51.0244 169.831 51.6525 172.672 51.9335C176.072 52.2668 176.336 52.7637 176.336 53.4323C176.336 54.5939 175.404 55.0887 173.217 55.0887Z" fill="#C62D2D"/>
<path d="M190.469 45.0234H219.531V55.268H205V56.9766H198.541V55.268H190.469V45.0234ZM192.084 53.5617H195.313V48.4383H196.928V53.5617H198.543V46.732H192.084V53.5617ZM200.155 46.732V55.268H203.385V53.5617H206.615V46.732H200.155ZM203.385 48.4406H205V51.8531H203.385V48.4406ZM208.23 46.732V53.5617H211.459V48.4383H213.074V53.5617H214.689V48.4383H216.304V53.5617H217.919V46.732H208.23Z" fill="#C62D2D"/>
<path d="M254.236 49.6823L241.318 36.765C240.575 36.0211 239.368 36.0211 238.624 36.765L235.942 39.4477L239.344 42.8503C240.135 42.5834 241.042 42.7624 241.672 43.3927C242.306 44.0269 242.484 44.9412 242.21 45.7348L245.489 49.0146C246.282 48.7411 247.198 48.9178 247.831 49.5525C248.717 50.4377 248.717 51.8728 247.831 52.7585C246.945 53.6445 245.511 53.6445 244.624 52.7585C243.958 52.092 243.794 51.1134 244.131 50.2927L241.073 47.2343L241.072 55.283C241.289 55.3896 241.492 55.5321 241.672 55.7114C242.558 56.5966 242.558 58.0313 241.672 58.9184C240.787 59.8036 239.351 59.8036 238.466 58.9184C237.581 58.0315 237.508 56.5969 238.393 55.7114C238.612 55.4927 238.828 55.3275 239.062 55.2169V47.0937C238.828 46.9831 238.612 46.819 238.393 46.5989C237.723 45.9286 237.597 44.9442 237.941 44.1202L234.605 40.7656L225.757 49.6226C225.013 50.3672 225.017 51.5738 225.761 52.3179L238.682 65.2352C239.425 65.9791 240.633 65.9791 241.378 65.2352L254.235 52.3779C254.98 51.6335 254.98 50.4263 254.236 49.6823Z" fill="#C62D2D"/>
<path fill-rule="evenodd" clip-rule="evenodd" d="M23.2088 82.4255C23.1221 81.3028 22.8582 80.2202 22.4912 79.1597C21.7309 76.7916 20.5107 74.6958 18.792 72.8925C18.3575 72.4364 17.8742 72.0185 17.5712 71.4509C17.3794 71.0918 17.1969 70.7278 17.0101 70.3659L16.8917 70.0676C16.8718 70.136 16.8591 70.1604 16.8584 70.185C16.8432 70.7749 16.509 71.175 16.0927 71.5484C15.6247 71.9686 15.189 72.4247 14.7392 72.8651C14.278 73.4716 13.8169 74.0782 13.3562 74.6845C12.983 75.3701 12.6104 76.0556 12.2377 76.7412L11.4901 78.7608L11.4676 78.7922C11.056 80.1441 10.853 81.5339 10.7532 82.9378C10.7157 83.4654 10.7584 84.0007 10.7881 84.5311C10.8305 85.2893 10.9623 86.0346 11.1598 86.7682C11.8775 89.4335 13.3339 91.6444 15.3249 93.5227C15.695 93.8716 16.0747 94.189 16.4609 94.5211C16.527 94.2949 16.5798 94.0688 16.6398 93.8426C16.6998 93.6173 16.7605 93.3933 16.801 93.1673C16.7602 93.3933 16.7145 93.6173 16.6693 93.8426L16.4757 94.5211L16.6487 95.1073L16.809 96.0176L16.8854 96.9675C16.8847 97.1604 16.877 97.3538 16.8887 97.5464C16.8915 97.5956 16.9562 97.6411 16.9923 97.6884L17.3148 97.8016L17.6509 97.9324L17.5932 97.088L17.5906 96.2564L17.7066 94.9896L17.7908 94.7138L18.0315 94.2872C18.3287 94.0481 18.6477 93.8311 18.9184 93.5651C19.4082 93.0837 19.8969 92.5962 20.3352 92.0691C20.904 91.3854 21.3934 90.6391 21.7862 89.8388C22.0491 89.3034 22.2966 88.7573 22.5015 88.1979C22.6819 87.7048 22.7937 87.1866 22.936 86.6794C22.9487 86.6428 22.9655 86.607 22.9735 86.5697C23.2674 85.2007 23.3169 83.8179 23.2088 82.4255ZM17.6778 93.9977L17.4891 93.5845L17.6778 93.9977L17.9551 94.2345L17.6778 93.9977Z" fill="#C62D2D"/>
<path fill-rule="evenodd" clip-rule="evenodd" d="M65.8886 86.9963C65.7831 86.3123 65.2087 85.8645 64.5405 85.8342C64.2986 85.8232 64.053 85.8485 63.8118 85.8792C63.5205 85.9163 63.2327 85.9819 62.942 86.0252C62.7412 86.0552 62.5375 86.0691 62.3369 86.0897L62.332 86.0637C62.7065 85.3563 63.0967 84.6567 63.4511 83.9393C63.7227 83.389 63.9552 82.8188 64.1955 82.2532C64.593 81.3162 64.9105 80.3501 65.1735 79.3683C65.4255 78.4282 65.6411 77.4778 65.7088 76.5026C65.736 76.113 65.7548 75.7219 65.7527 75.3319C65.7508 75.0209 65.7173 74.7094 65.6861 74.3993C65.6509 74.044 65.5436 73.7072 65.395 73.383C65.1991 72.956 64.8953 72.6056 64.5756 72.2728C64.3197 72.0063 64.0382 71.7635 63.7591 71.5209C63.3611 71.1748 62.9137 70.8984 62.4489 70.653C61.9209 70.3741 61.3659 70.1559 60.7872 70.0085C60.4373 69.9192 60.0794 69.8529 59.725 69.7821C59.5975 69.7563 59.4698 69.7031 59.3423 69.7031H56.942C56.8553 69.7031 56.7693 69.7479 56.6819 69.7577C56.1072 69.8217 55.5393 69.93 54.9878 70.1009C54.7816 70.1648 54.5931 70.1245 54.3972 70.1065C54.247 70.0927 54.0993 70.0523 53.9491 70.0448C53.3767 70.0163 52.8037 69.9743 52.2316 69.9804C51.6834 69.986 51.1408 70.0763 50.6102 70.227C50.166 70.353 49.7315 70.507 49.3335 70.7405C49.1631 70.8403 49.0281 70.8216 48.8519 70.7707C48.2596 70.5998 47.6631 70.4393 47.0615 70.3045C46.6865 70.2206 46.3009 70.1789 45.918 70.1388C45.5509 70.1006 45.1811 70.0777 44.8122 70.0699C44.4517 70.0622 44.0887 70.0624 43.7298 70.0943C43.1582 70.1452 42.5973 70.2614 42.0522 70.4489C41.4468 70.657 40.8918 70.9587 40.3914 71.3548C39.8835 71.7567 39.4762 72.2475 39.1485 72.8079C38.8033 73.3992 38.5666 74.0323 38.4194 74.6972C38.3397 75.0574 38.2893 75.4277 38.2347 75.7936C38.2176 75.9075 38.4062 76.0214 38.1719 76.1348V77.7272C38.4062 77.8331 38.2206 77.9388 38.2342 78.045C38.2668 78.3002 38.2956 78.5576 38.3387 78.8109C38.407 79.212 38.4878 79.6118 38.5703 80.0102C38.6854 80.5669 38.8052 81.123 38.9327 81.6769C39.0255 82.08 39.1312 82.4808 39.2418 82.8795C39.4108 83.4884 39.5772 84.0984 39.7682 84.7005C39.9456 85.26 40.1488 85.8115 40.3504 86.363C40.6295 87.1259 40.9637 87.8641 41.3645 88.5717C41.7112 89.1844 42.1073 89.7581 42.6386 90.2302C42.9887 90.5412 43.3785 90.7802 43.8323 90.8998C44.1887 90.9935 44.5511 91.0048 44.916 90.93C45.3391 90.8433 45.7136 90.6612 46.0466 90.3884C46.0848 90.357 46.1268 90.333 46.172 90.3907C46.3443 90.6089 46.5749 90.7545 46.8161 90.8803C47.467 91.2197 48.1762 91.3214 48.8966 91.3629C49.071 91.373 49.2473 91.3479 49.423 91.343C49.7655 91.3336 50.0983 91.2668 50.4257 91.1721C50.5973 91.1224 50.7648 91.0594 50.9395 91.0005C50.9486 91.1864 50.9603 91.3655 50.9657 91.5445L50.9901 92.5209C50.9945 92.6695 51.0004 92.8186 51.0142 92.9665C51.0496 93.3478 51.0843 93.7294 51.1298 94.1095C51.1614 94.3716 51.1942 94.6357 51.2559 94.8914C51.3798 95.4077 51.5479 95.9105 51.7616 96.398C51.9714 96.8763 52.273 97.2802 52.6757 97.6132C53.196 98.0435 53.8059 98.227 54.4645 98.261C54.7368 98.2753 55.0169 98.262 55.285 98.2132C55.7099 98.1361 56.1339 98.0391 56.5476 97.9144C57.3892 97.6603 58.1167 97.2216 58.6602 96.5126C58.9696 96.1085 59.2237 95.6714 59.3868 95.1888C59.5213 94.7902 59.6481 94.3875 59.7489 93.9795C59.8286 93.6579 59.868 93.3263 59.9165 92.9979C59.9486 92.7806 59.9678 92.5613 59.988 92.3423C60.0208 91.9868 60.0543 91.6315 60.078 91.2752C60.0944 91.0273 60.0937 90.7781 60.1035 90.5297C60.1066 90.454 60.1187 90.3787 60.1258 90.3033C60.1323 90.2334 60.1675 90.2093 60.2388 90.2105C60.4898 90.2142 60.7412 90.2208 60.9916 90.2095C61.2721 90.1969 61.5552 90.1849 61.8313 90.1385C62.2244 90.0727 62.6155 89.9895 63.0009 89.8884C63.4562 89.7694 63.8739 89.5561 64.2759 89.313C64.7441 89.0302 65.1709 88.6983 65.5173 88.2708C65.8185 87.8979 65.9613 87.4669 65.8886 86.9963ZM65.0889 87.2264C65.0734 87.4409 64.9752 87.6246 64.8327 87.7816C64.1603 88.523 63.3168 88.9727 62.3519 89.1942C61.9853 89.2781 61.607 89.3217 61.2318 89.3564C60.9123 89.3859 60.5882 89.3909 60.2676 89.3791C60.0318 89.3702 59.7979 89.3163 59.557 89.2816C59.5328 89.502 59.5098 89.7314 59.482 89.9604L59.3697 90.8381C59.3357 91.1163 59.3092 91.3955 59.2743 91.6734C59.2401 91.9432 59.1974 92.212 59.1616 92.4818C59.128 92.733 59.1034 92.9855 59.0662 93.2362C59.0088 93.6206 58.9539 94.0059 58.8789 94.3873C58.7889 94.8431 58.6509 95.2847 58.4256 95.6958C58.1509 96.1976 57.7614 96.5798 57.2657 96.863C56.7548 97.155 56.1962 97.3069 55.63 97.4339C55.2292 97.5239 54.8162 97.5387 54.4103 97.5021C53.7062 97.4384 53.1053 97.1372 52.6511 96.5913C52.2175 96.0703 51.9241 95.4731 51.8191 94.7972C51.7689 94.4759 51.7328 94.1517 51.704 93.8278C51.6721 93.4676 51.6503 93.1062 51.6339 92.745C51.613 92.2863 51.5978 91.8277 51.5877 91.369C51.5753 90.8051 51.5713 90.2412 51.5634 89.6773L51.562 89.6557C51.2751 89.8277 50.9931 90.0162 50.6941 90.1713C50.3439 90.3532 49.9635 90.4587 49.5695 90.4884C49.2606 90.5119 48.9477 90.5332 48.6402 90.5086C48.1361 90.468 47.6324 90.3891 47.181 90.1409C46.998 90.0401 46.807 89.9175 46.6809 89.7565C46.3785 89.3707 46.5234 88.8832 46.9792 88.6486C47.2942 88.4862 47.638 88.4184 47.9795 88.3395C48.2762 88.2708 48.5716 88.1927 48.861 88.0983C49.1474 88.0045 49.3281 87.7723 49.5065 87.5445L49.7891 87.1809C49.6713 87.1685 49.5602 87.1559 49.4491 87.1455C49.1118 87.1137 48.79 87.0209 48.4823 86.8845C48.2188 86.768 48.2148 86.7553 48.0217 86.9648C47.6992 87.315 47.3856 87.6734 47.0697 88.0294C46.8372 88.2912 46.6061 88.5546 46.3748 88.8171C46.1455 89.0768 45.9309 89.3512 45.6841 89.5929C45.3175 89.9517 44.8757 90.1676 44.3486 90.1432C44.0104 90.1277 43.7008 90.0091 43.4223 89.8153C42.8477 89.415 42.4605 88.8551 42.108 88.267C41.6563 87.5135 41.3097 86.7108 41.013 85.886C40.8077 85.316 40.6014 84.7455 40.4221 84.1673C40.2273 83.539 40.0565 82.9027 39.8884 82.2666C39.7614 81.7866 39.6487 81.3026 39.5411 80.8177C39.419 80.2662 39.3016 79.7137 39.198 79.1585C39.1281 78.7837 39.0876 78.4036 39.0311 78.0262C38.9549 77.5177 38.9409 77.0044 38.9685 76.4937C38.9931 76.0336 39.0592 75.5747 39.1248 75.1177C39.2158 74.4853 39.4241 73.8886 39.7239 73.3252C39.9074 72.9799 40.1352 72.6661 40.3987 72.3745C40.8311 71.8959 41.3545 71.55 41.9366 71.2903C42.3435 71.1089 42.7734 70.9997 43.2114 70.9144C43.8616 70.7878 44.5176 70.7927 45.1738 70.8063C45.4607 70.8122 45.7464 70.8645 46.033 70.8928C46.6502 70.9542 47.2551 71.0841 47.8523 71.2444C48.2875 71.3611 48.7138 71.5123 49.1455 71.6435C49.1889 71.6566 49.2524 71.6555 49.2878 71.6323C49.8728 71.2505 50.5122 70.9985 51.1921 70.8544C51.4502 70.7998 51.7164 70.7759 51.9803 70.759C52.3012 70.7386 52.6246 70.7198 52.9448 70.7384C53.3296 70.7604 53.7126 70.8171 54.0951 70.8696C54.2807 70.8949 54.4619 70.9594 54.648 70.977C54.737 70.9854 54.8315 70.9202 54.9257 70.8984C55.4059 70.7876 55.8841 70.6641 56.3685 70.5764C56.7292 70.5112 57.0977 70.4805 57.4645 70.4595C57.8734 70.436 58.2855 70.4189 58.6942 70.4386C59.211 70.4634 59.7241 70.537 60.2305 70.6549C60.858 70.8009 61.4598 71.013 62.032 71.3074C62.4595 71.5273 62.8659 71.7823 63.2317 72.0959C63.4715 72.3016 63.7169 72.5048 63.9334 72.7341C64.2006 73.0167 64.4732 73.2996 64.6408 73.6617C64.7669 73.9348 64.8569 74.2174 64.8817 74.5165C64.9127 74.8882 64.9502 75.2613 64.9466 75.6335C64.9434 75.9895 64.8948 76.3453 64.8604 76.7004C64.7821 77.5099 64.6061 78.3019 64.3923 79.0833C64.2156 79.7288 64.0091 80.3672 63.7855 80.9981C63.5795 81.5796 63.3419 82.1505 63.1016 82.7191C62.9242 83.1396 62.7332 83.5556 62.5255 83.962C62.1325 84.7322 61.7238 85.4944 61.251 86.2198C61.1695 86.3452 61.0921 86.4736 61.0124 86.6016C61.2187 86.7408 61.4523 86.7898 61.6877 86.8151C61.9115 86.8395 62.1398 86.854 62.3634 86.8373C62.7213 86.8109 63.078 86.7598 63.4338 86.7098C63.7862 86.6606 64.1317 86.5603 64.4936 86.5868C64.855 86.613 65.1135 86.8877 65.0889 87.2264ZM59.9296 86.4405C59.7761 86.2423 59.6195 86.0463 59.4693 85.8457C59.2335 85.5307 59.0641 85.1789 58.8939 84.8255C58.7327 84.4905 58.5348 84.1734 58.3649 83.8423C58.0684 83.2645 57.7666 82.6887 57.4935 82.0997C57.1502 81.3598 56.8795 80.5936 56.7941 79.774C56.758 79.4271 56.7489 79.0807 56.819 78.7371C56.9312 78.1884 57.2179 77.7593 57.6998 77.4649C58.1467 77.1919 58.6448 77.1038 59.155 77.0761C59.4716 77.059 59.7897 77.073 60.1183 77.073L60.1073 77.0175C59.9029 76.5902 59.7119 76.1557 59.4883 75.7385C59.1728 75.1498 58.7692 74.6189 58.3197 74.1267C57.9866 73.7623 57.6259 73.4241 57.2308 73.1252C56.8422 72.8311 56.4327 72.5684 55.9959 72.3534C55.4748 72.0973 54.9323 71.8992 54.363 71.7729C53.8159 71.6515 53.2654 71.5772 52.7043 71.5711C52.2257 71.5659 51.7502 71.5875 51.284 71.6955C50.5804 71.8584 49.9368 72.1481 49.3769 72.6173C49.0642 72.8794 48.7914 73.1735 48.5526 73.5009C48.2723 73.886 48.0461 74.3018 47.8527 74.7377C47.5874 75.3359 47.4053 75.9584 47.2809 76.5982C47.2185 76.9172 47.1698 77.239 47.1201 77.5605C47.1027 77.673 47.1013 77.7881 47.0912 77.917C47.1777 77.872 47.2401 77.8373 47.3038 77.8064L47.5112 77.7134C48.2127 77.3925 48.9395 77.186 49.7207 77.2097C50.0526 77.2198 50.3702 77.2854 50.6652 77.4307C51.2312 77.7098 51.5624 78.1845 51.7063 78.7852C51.8057 79.1998 51.8737 79.6226 51.9398 80.0442C51.9916 80.3735 52.0445 80.7063 52.0506 81.0384C52.0593 81.5238 52.0347 82.0102 52.0082 82.4953C51.9857 82.9088 51.8995 83.3156 51.7551 83.7014C51.4926 84.4029 51.2001 85.0929 50.9268 85.7904C50.8366 86.0208 50.7672 86.2594 50.6819 86.5127C50.8136 86.5127 50.9205 86.5118 51.0273 86.5132C51.0691 86.5139 51.1117 86.5151 51.152 86.5247C51.4661 86.5988 51.7384 86.741 51.9618 86.9827C52.2597 87.3042 52.416 87.6795 52.424 88.1138C52.4284 88.3545 52.4031 88.5959 52.4043 88.8366C52.4092 89.9583 52.4177 91.08 52.427 92.2015C52.4287 92.3848 52.4378 92.5683 52.4509 92.7513C52.4784 93.1345 52.506 93.518 52.5435 93.9002C52.5698 94.1714 52.6063 94.4421 52.6492 94.7114C52.7099 95.093 52.8836 95.4326 53.0807 95.7572C53.2504 96.0363 53.4709 96.2735 53.7616 96.4371C54.2554 96.7151 54.7872 96.7383 55.3232 96.6359C55.6853 96.5667 56.0409 96.4556 56.3924 96.341C56.7391 96.2283 57.0522 96.0436 57.3152 95.7893C57.5615 95.5505 57.7363 95.2594 57.8542 94.938C58.083 94.3148 58.1542 93.6586 58.2489 93.0075C58.2843 92.7638 58.315 92.5193 58.3473 92.2751C58.3841 91.9971 58.4214 91.7194 58.457 91.4416C58.4833 91.2347 58.5072 91.0273 58.5325 90.8203C58.5686 90.5231 58.6068 90.2262 58.6413 89.9287C58.6677 89.6988 58.6902 89.468 58.7137 89.2376C58.7439 88.9432 58.7765 88.6488 58.8025 88.354C58.8227 88.1302 58.8145 87.9023 58.8541 87.6827C58.927 87.2801 59.1173 86.9374 59.4742 86.7159C59.6235 86.6234 59.792 86.5624 59.9577 86.4841L59.9296 86.4405ZM46.4303 84.7877C46.252 84.3654 46.1448 83.9252 46.113 83.4701C46.083 83.0423 46.1338 82.6163 46.1777 82.1904C46.2203 81.7779 46.2557 81.3635 46.2681 80.9491C46.2887 80.268 46.2428 79.5879 46.2102 78.9073C46.1905 78.502 46.2377 78.0919 46.2738 77.6857C46.3063 77.3198 46.3469 76.953 46.416 76.5926C46.532 75.9877 46.686 75.3914 46.9049 74.8134C47.1128 74.2655 47.3516 73.7318 47.6889 73.2513C47.92 72.9218 48.1823 72.6138 48.4342 72.2918L48.3595 72.2653C47.5396 72.0049 46.7064 71.8015 45.8495 71.7127C45.4443 71.6707 45.0377 71.6461 44.6313 71.622C44.5066 71.6145 44.38 71.6313 44.2548 71.6433C43.945 71.6728 43.6314 71.6845 43.3265 71.7427C42.8076 71.8413 42.3098 72.0073 41.8487 72.2775C41.4348 72.5201 41.0873 72.8337 40.7962 73.2098C40.4746 73.6252 40.2583 74.0948 40.1029 74.5957C39.9194 75.1866 39.832 75.7945 39.8083 76.4081C39.7877 76.946 39.7773 77.487 39.8702 78.0227C39.9393 78.4216 39.9855 78.8248 40.0616 79.222C40.1655 79.7637 40.2768 80.3041 40.4055 80.8402C40.5895 81.6075 40.7732 82.376 40.9912 83.134C41.1998 83.8603 41.4351 84.5801 41.6901 85.2912C41.8987 85.8715 42.1398 86.441 42.3939 87.003C42.5594 87.3691 42.7598 87.7214 42.9698 88.0643C43.1931 88.4283 43.4472 88.7738 43.792 89.0379C44.227 89.3714 44.5638 89.4232 45.0058 89.0573C45.1952 88.9005 45.3552 88.707 45.52 88.5225C45.7818 88.2295 46.0345 87.9286 46.2951 87.6347C46.627 87.2602 46.963 86.8896 47.2966 86.517C47.3671 86.4382 47.4348 86.3571 47.5035 86.2774L47.3901 86.1778C46.9755 85.7796 46.6544 85.3179 46.4303 84.7877ZM59.0134 73.6388C59.2844 73.9566 59.5466 74.2838 59.789 74.6241C60.2577 75.2824 60.6323 75.9933 60.9081 76.7538C61.0302 77.089 61.1277 77.4274 61.0841 77.7942C61.0539 78.0511 61.0565 78.3117 61.0338 78.57C61.0148 78.7849 60.9808 78.9987 60.9529 79.2129C60.9112 79.5359 60.8507 79.8579 60.8327 80.1823C60.8155 80.4909 60.8334 80.8029 60.8528 81.1123C60.8725 81.4266 60.9149 81.7395 60.9438 82.0533C60.9763 82.4091 61.0202 82.7648 61.0302 83.1213C61.0384 83.4141 61.0124 83.7087 60.9869 84.0009C60.9564 84.353 60.8671 84.6938 60.734 85.0207C60.6405 85.2509 60.5287 85.474 60.423 85.7044L60.4654 85.7494L60.5298 85.7993L60.5948 85.683C61.143 84.8187 61.6307 83.921 62.053 82.9894C62.3247 82.3894 62.5792 81.7809 62.8234 81.1692C63.2041 80.2167 63.5052 79.2375 63.7382 78.2388C63.8427 77.7905 63.9227 77.3353 63.9937 76.8802C64.049 76.5244 64.0952 76.1644 64.1055 75.8053C64.1165 75.4245 64.0954 75.0405 64.0602 74.6606C64.034 74.3738 63.9632 74.085 63.7834 73.8518C63.4945 73.4763 63.1825 73.1173 62.7988 72.8332C62.4759 72.5939 62.1541 72.3485 61.8074 72.1472C61.2578 71.8284 60.663 71.6161 60.0414 71.4715C59.4348 71.3302 58.8203 71.2692 58.2018 71.2563C57.8371 71.2486 57.4708 71.2877 57.1068 71.322C56.777 71.3529 56.4494 71.4056 56.1173 71.4492C56.4735 71.6496 56.8248 71.8277 57.1562 72.0377C57.853 72.4791 58.4774 73.0102 59.0134 73.6388ZM49.9607 85.9955C50.1859 85.2752 50.4927 84.5876 50.7899 83.8957C51.0309 83.3346 51.1626 82.7435 51.2064 82.1365C51.2282 81.8372 51.2221 81.5341 51.2073 81.2339C51.1907 80.9004 51.164 80.5659 51.1155 80.2357C51.0531 79.8136 50.9821 79.3913 50.8823 78.9769C50.774 78.5285 50.5009 78.2163 50.0331 78.1012C49.7481 78.0312 49.465 78.034 49.177 78.0795C48.4734 78.1903 47.8293 78.4495 47.2293 78.8292C47.1086 78.9056 47.0423 78.9673 47.0631 79.1405C47.1072 79.5073 47.1168 79.8799 47.1152 80.2502C47.1128 80.7743 47.0905 81.2984 47.0706 81.8222C47.0641 81.9928 47.0395 82.1625 47.0212 82.3324C46.993 82.5926 46.9389 82.8525 46.9405 83.1122C46.9422 83.3798 46.9696 83.6538 47.0345 83.913C47.2408 84.735 47.6777 85.4077 48.3937 85.8823C48.8341 86.1741 49.3213 86.3213 49.8562 86.3491C49.8925 86.2263 49.9248 86.1103 49.9607 85.9955ZM49.1202 78.9438C49.026 78.746 49.0799 78.5822 49.2984 78.5063C49.3516 78.4875 49.4064 78.4676 49.4617 78.4622C49.5377 78.4547 49.615 78.4603 49.6919 78.4603C49.9689 78.4617 50.2354 78.5004 50.4641 78.6766C50.6109 78.7896 50.6502 78.9396 50.5553 79.0936C50.4205 79.312 50.215 79.4217 49.9626 79.4428C49.5648 79.4759 49.2857 79.2905 49.1202 78.9438ZM60.1452 78.8716C60.1771 78.6082 60.2027 78.3441 60.2352 78.0806C60.2484 77.9747 60.1926 77.9461 60.1037 77.9435C59.8244 77.9358 59.545 77.9259 59.2656 77.9208C58.9506 77.9152 58.6441 77.9658 58.3525 78.0855C58.0291 78.2187 57.7827 78.432 57.6822 78.784C57.6072 79.0465 57.587 79.3088 57.6135 79.5832C57.6538 80.0016 57.7466 80.4075 57.8931 80.7963C58.0886 81.3169 58.2932 81.8372 58.5377 82.3359C58.8688 83.0112 59.2436 83.6648 59.5954 84.3298C59.6894 84.5072 59.7684 84.6923 59.8663 84.8995C60.0714 84.4652 60.1715 84.0305 60.183 83.5819C60.1926 83.2045 60.1623 82.8255 60.1403 82.448C60.1265 82.2169 60.0939 81.9872 60.0714 81.7566C60.04 81.4352 59.9924 81.1141 59.9852 80.7921C59.9779 80.4647 60.0011 80.1354 60.0292 79.8084C60.0557 79.4948 60.1075 79.1838 60.1452 78.8716ZM59.515 78.618C59.4112 78.9047 59.1892 79.0664 58.9014 79.114C58.633 79.158 58.398 79.0589 58.2231 78.8449C58.0987 78.6926 58.1462 78.5121 58.3328 78.4092C58.547 78.2906 58.7826 78.2606 59.0603 78.2426C59.1358 78.2564 59.2495 78.2679 59.3575 78.2988C59.5143 78.3431 59.5722 78.461 59.515 78.618ZM51.213 87.4446C51.0595 87.3192 50.8565 87.312 50.7105 87.4495C50.5293 87.6206 50.3699 87.8163 50.2105 88.0092C50.0266 88.2321 49.8541 88.4639 49.6166 88.6366C49.2712 88.8877 48.8685 88.9917 48.4637 89.0902C48.142 89.1684 47.8188 89.2411 47.496 89.3163L47.492 89.358C47.5879 89.4023 47.6807 89.4577 47.7805 89.4893C48.2727 89.6452 48.7734 89.7227 49.2934 89.6787C49.6689 89.6468 50.0266 89.565 50.3655 89.4042C50.8319 89.1832 51.1907 88.833 51.4959 88.4257C51.547 88.3577 51.5702 88.2572 51.5763 88.1695C51.5971 87.8599 51.4398 87.6298 51.213 87.4446ZM63.3421 87.5679C62.946 87.6103 62.5495 87.6553 62.1522 87.678C61.9605 87.6891 61.7659 87.6525 61.5723 87.6368C61.2477 87.6105 60.9309 87.5384 60.6564 87.3649C60.4975 87.2648 60.3655 87.2536 60.1968 87.3103C59.9559 87.3914 59.7592 87.5147 59.7011 87.7758C59.6615 87.9523 59.6472 88.1351 59.6312 88.3158C59.6282 88.3477 59.668 88.4062 59.6985 88.4142C59.8844 88.4632 60.0712 88.5211 60.2612 88.5382C60.4947 88.5593 60.7323 88.5525 60.9674 88.5408C61.2213 88.5281 61.4767 88.5117 61.7268 88.4695C62.3162 88.3706 62.8865 88.2094 63.393 87.8752C63.5755 87.7545 63.7565 87.6312 63.9379 87.5091L63.9229 87.4833C63.7293 87.5121 63.5366 87.5473 63.3421 87.5679Z" fill="#C62D2D"/>
<path d="M101.409 97.7773L100.796 97.1827C100.215 96.4111 99.4671 95.7333 98.6827 95.1705C98.0571 94.7215 96.6527 94.1149 96.3916 93.3872L96.3436 93.3415C96.7873 93.2913 97.3052 93.131 97.7147 93.0211C98.4023 92.8369 98.97 92.8844 99.6802 92.7012C100 92.6098 100.36 92.5181 100.594 92.4267V92.2439C100.36 91.8757 100.025 91.3882 99.6337 91.0549C98.6098 90.183 97.5148 89.3119 96.364 88.5853C95.7258 88.1827 94.9481 87.9209 94.272 87.5794C94.0444 87.4643 93.6504 87.4045 93.4999 87.2133C93.1444 86.7605 92.9543 86.1862 92.6801 85.6587C92.1061 84.5531 91.5436 83.3459 91.035 82.1827C90.6881 81.3895 90.4624 80.6077 90.0298 79.8961C87.9532 76.4819 85.7184 74.4216 82.2562 72.3961C81.5191 71.9653 80.6323 71.7954 79.6948 71.5727C79.1923 71.5425 78.6891 71.5118 78.1861 71.4811C77.8788 71.3531 77.5594 70.9774 77.2716 70.7951C76.1241 70.0704 73.182 68.4942 72.3323 70.5666C71.7959 71.8746 73.1339 73.1505 73.6125 73.8136C73.9488 74.2781 74.3789 74.7996 74.6187 75.3225C74.7769 75.6663 74.8038 76.0111 74.9391 76.3746C75.2714 77.2704 75.5604 78.2449 75.9907 79.0725C76.208 79.4916 76.4475 79.9327 76.7224 80.3072C76.8907 80.5371 77.1795 80.6384 77.2252 80.9932C76.943 81.3884 76.9268 82.0019 76.7681 82.5026C76.0533 84.7561 76.3233 87.5573 77.3627 89.2252C77.6815 89.7375 78.4329 90.8355 79.4662 90.4141C80.37 90.0462 80.2223 88.9052 80.4809 87.8988C80.5392 87.671 80.4375 87.5032 80.6719 87.3502V87.3959C80.9062 87.9445 81.1664 88.4934 81.4411 89.0421C82.0505 90.0234 83.0557 91.0488 83.9719 91.7407C84.447 92.0995 84.8906 92.7197 85.3594 92.9297V92.906H85.4112C85.2923 92.6716 85.106 92.6325 84.9541 92.4832C84.5962 92.1326 84.198 91.6905 83.9025 91.2886C83.0691 90.1573 82.3327 88.9162 81.6616 87.6272C81.341 87.0117 81.0623 86.3313 80.7923 85.7051C80.6885 85.4637 80.6897 85.0976 80.4727 84.9727C80.1766 85.4316 79.7409 85.8023 79.512 86.3444C79.1461 87.2107 79.099 88.2673 78.9633 89.3625C78.8829 89.3911 78.9187 89.3714 78.8716 89.408C78.2346 89.2544 78.011 88.5989 77.7741 88.0362C77.1752 86.6135 77.0641 84.323 77.591 82.6856C77.7274 82.2616 78.3436 80.9276 78.094 80.5359C77.9749 80.1457 77.5821 79.9195 77.3625 79.6212C77.0904 79.2523 76.819 78.7666 76.6305 78.3405C76.1405 77.2317 75.912 75.9865 75.3959 74.8652C75.1491 74.3292 74.7321 73.7866 74.3897 73.3104C74.0107 72.7823 73.586 72.3935 73.2919 71.7553C73.1876 71.5284 73.0455 71.1652 73.2005 70.9319C73.2497 70.7747 73.3193 70.7091 73.4749 70.6577C73.7405 70.4531 74.4787 70.7257 74.7553 70.8403C75.4887 71.145 76.1009 71.4262 76.7222 71.8378C77.0201 72.0356 77.322 72.2808 77.6824 72.5152H78.094C78.7378 72.5152 79.459 72.5695 80.0606 72.7523C81.1235 73.0755 82.0762 73.5825 82.9416 74.1288C85.5773 75.7934 87.7324 78.1648 89.2069 80.9909C89.4441 81.446 89.5467 81.8812 89.7555 82.3638C90.177 83.3372 90.708 84.3391 91.1273 85.2909C91.5459 86.2409 91.9537 87.1992 92.5453 87.9895C92.8563 88.4048 94.0573 88.628 94.6031 88.8588C94.9859 89.0203 95.6128 89.1891 95.9752 89.4073C96.6673 89.8249 97.3378 90.3223 97.9875 90.7795C98.3119 91.0078 99.3094 91.5094 99.3593 91.9228C97.7508 91.8787 96.5224 92.0287 95.4722 92.4715C95.1738 92.5973 94.6976 92.6009 94.6488 92.9747C94.8129 93.1465 94.8384 93.4034 94.9687 93.6148C95.2193 94.0202 95.6428 94.5644 96.0206 94.8494C96.4336 95.1612 96.8587 95.4942 97.3012 95.764C98.0885 96.2437 98.967 96.518 99.7249 96.9987C100.172 97.2823 100.653 97.6392 101.088 97.9589C101.303 98.1171 101.297 98.363 101.765 98.4621V98.4166C101.531 98.2303 101.544 97.973 101.409 97.7773ZM78.9173 74.4996C78.582 74.4933 78.3281 74.5364 78.0937 74.5908V74.625H78.1402C78.3002 74.8594 78.5827 75.1711 78.7802 75.4542L79.2377 76.417L79.283 76.3732C79.5663 76.1733 79.6962 75.855 79.6945 75.3675C79.5813 75.2482 79.5642 75.0989 79.4662 74.9564C79.3355 74.7668 79.0821 74.6592 78.9173 74.4996Z" fill="#C62D2D"/>
<path fill-rule="evenodd" clip-rule="evenodd" d="M130.634 91.6969L118.943 95.1825C118.861 95.2072 118.775 95.2103 118.692 95.1916C118.609 95.1729 118.532 95.133 118.469 95.0758C118.406 95.0185 118.359 94.9459 118.332 94.8651C118.306 94.7842 118.301 94.6978 118.318 94.6144L122.495 74.4478C122.513 74.3654 122.556 74.2907 122.618 74.234C122.68 74.1773 122.759 74.1416 122.843 74.1319C122.926 74.1222 123.011 74.1389 123.085 74.1798C123.158 74.2206 123.217 74.2836 123.253 74.3597L130.987 90.9169C131.022 90.9905 131.04 91.0708 131.04 91.1521C131.041 91.2335 131.024 91.314 130.991 91.3882C130.957 91.4624 130.908 91.5284 130.846 91.5816C130.785 91.6349 130.713 91.6743 130.634 91.6969ZM132.64 90.8738L123.688 71.7028C123.577 71.4664 123.405 71.2644 123.189 71.1185C122.973 70.9727 122.721 70.8885 122.46 70.875C122.2 70.8571 121.939 70.9114 121.708 71.032C121.476 71.1526 121.282 71.3348 121.148 71.5584L111.44 87.42C111.292 87.6601 111.215 87.9372 111.218 88.2193C111.221 88.5014 111.304 88.7768 111.457 89.0138L116.204 96.4284C116.383 96.7055 116.647 96.9172 116.956 97.0318C117.266 97.1464 117.604 97.1577 117.92 97.0641L131.701 92.955C131.909 92.8944 132.102 92.7894 132.266 92.6472C132.429 92.505 132.56 92.329 132.649 92.1314C132.738 91.9337 132.784 91.7191 132.782 91.5024C132.78 91.2856 132.731 91.0717 132.639 90.8756L132.64 90.8738Z" fill="#C62D2D"/>
<path d="M182.742 80.8359C182.391 80.8359 182.156 81.1172 182.156 81.4688V84.7734L178.43 81.0234C178.242 80.8359 177.914 80.7891 177.68 80.8828C177.445 80.9766 177.234 81.2109 177.234 81.4688V86.3203C177.234 86.6719 177.586 86.9531 177.938 86.9531C178.289 86.9531 178.641 86.6719 178.641 86.3203V83.0156L182.414 86.7656C182.531 86.8828 182.695 86.9531 182.859 86.9531C182.93 86.9531 182.953 86.9297 183.023 86.9063C183.258 86.8125 183.328 86.5781 183.328 86.3203V81.4922C183.328 81.1406 183.094 80.8359 182.742 80.8359ZM187.359 83.6016C187.031 83.6016 186.727 83.9297 186.727 84.2578C186.727 84.5859 187.031 84.9141 187.359 84.9141L188.906 85.0078L188.555 85.875H186.562L185.578 84.0234L186.586 82.125H188.719L189.211 83.0625H190.5L189.656 81.2109L189.469 80.9531H185.812L185.648 81.2344L184.266 83.6484L184.102 83.9531L184.266 84.2578L185.625 86.6719L185.812 87.0469H189.352L189.516 86.6484L190.523 84.5391L190.969 83.5312H189.938L187.359 83.6016ZM192.234 80.8359C191.906 80.8359 191.531 81.1406 191.531 81.4688V83.0625H192.938V81.4922C192.938 81.1406 192.562 80.8359 192.234 80.8359ZM199.359 80.9062C199.125 80.8125 198.797 80.8594 198.633 81.0469L194.812 84.7969V81.4922C194.812 81.1406 194.578 80.8594 194.227 80.8594C193.875 80.8594 193.641 81.1406 193.641 81.4922V86.3438C193.641 86.6016 193.805 86.8359 194.039 86.9297C194.109 86.9531 194.203 86.9766 194.273 86.9766C194.438 86.9766 194.648 86.9063 194.766 86.7891L198.562 83.0391V86.3438C198.562 86.6953 198.797 86.9766 199.148 86.9766C199.5 86.9766 199.734 86.6953 199.734 86.3438V81.4922C199.734 81.2344 199.594 81 199.359 80.9062ZM204.469 83.9062L206.438 81.9375C206.695 81.6797 206.695 81.2813 206.438 81.0469C206.18 80.7891 205.781 80.7891 205.547 81.0469L203.578 83.0156L201.609 81.0469C201.352 80.7891 200.953 80.7891 200.719 81.0469C200.461 81.3047 200.461 81.7031 200.719 81.9375L202.688 83.9062L200.719 85.875C200.461 86.1328 200.461 86.5313 200.719 86.7656C200.836 86.8828 201 86.9531 201.164 86.9531C201.328 86.9531 201.492 86.8828 201.609 86.7656L203.578 84.7969L205.547 86.7656C205.664 86.8828 205.828 86.9531 205.992 86.9531C206.156 86.9531 206.32 86.8828 206.438 86.7656C206.695 86.5078 206.695 86.1094 206.438 85.875L204.469 83.9062ZM191.531 86.3203C191.531 86.6484 191.883 86.9531 192.234 86.9531C192.562 86.9531 192.938 86.6484 192.938 86.3203V83.5312H191.531V86.3203Z" fill="#C62D2D"/>
<path fill-rule="evenodd" clip-rule="evenodd" d="M168.677 93.5145C168.257 93.1681 167.827 92.8299 167.433 92.4539C166.995 92.0356 166.72 91.5295 166.78 90.8888C166.814 90.5201 166.729 90.203 166.284 90.0797C166.389 89.8092 166.487 89.6278 166.526 89.4345C166.57 89.2188 166.568 88.9922 166.574 88.7702C166.636 86.4359 165.793 84.3895 164.544 82.4808C163.969 81.6024 163.368 80.7396 162.755 79.8872C161.796 78.5541 161.452 77.0564 161.435 75.4385C161.426 74.6965 161.339 73.9432 161.181 73.2178C160.874 71.8022 160.115 70.6952 158.74 70.1016C157.686 69.6464 156.595 69.5562 155.481 69.8475C153.864 70.2706 152.886 71.4727 152.904 73.1494C152.922 74.7631 153.002 76.3788 153.12 77.9888C153.188 78.9012 153.047 79.6884 152.442 80.4122C151.86 81.1081 151.339 81.8588 150.835 82.6146C150.546 83.0468 150.291 83.5177 150.113 84.0047C149.628 85.332 149.182 86.6702 148.408 87.8719C148.121 88.3172 148.089 88.8155 148.292 89.3248C148.345 89.4567 148.377 89.6597 148.313 89.7659C147.761 90.6816 147.139 91.4874 145.954 91.6631C145.022 91.8016 144.976 91.9711 145.004 92.9318C145.028 93.7139 145.019 94.5033 144.939 95.2805C144.854 96.1137 144.941 96.3401 145.746 96.5398C147.603 97.001 149.475 97.3945 151.251 98.1462C152.008 98.4661 152.767 98.355 153.376 97.733C154.012 97.0835 154.815 96.8295 155.683 96.8285C157.156 96.8274 158.63 96.8984 160.103 96.915C160.502 96.9197 160.731 97.0681 160.892 97.4304C161.089 97.8741 161.421 98.2001 161.934 98.2568C162.916 98.3651 163.812 98.2193 164.556 97.4695C165.475 96.5442 166.533 95.8134 167.747 95.307C168.095 95.1619 168.422 94.9338 168.709 94.6863C169.232 94.2359 169.204 93.949 168.677 93.5145ZM156.631 74.6531C156.809 74.0435 157.226 73.6479 157.86 73.5279C158.393 73.4271 158.845 73.6892 159.182 74.2887C159.544 74.9351 159.663 75.6106 159.354 76.3179C159.1 76.8977 158.981 76.9524 158.387 76.7557C158.276 76.7189 158.168 76.6753 157.971 76.6029C158.137 76.4637 158.241 76.3603 158.361 76.279C158.627 76.0981 158.701 75.8435 158.676 75.5412C158.644 75.1442 158.331 74.7926 158.011 74.797C157.724 74.801 157.481 75.0706 157.449 75.4802C157.429 75.7355 157.471 75.9956 157.489 76.3214C156.682 76.0817 156.385 75.4952 156.631 74.6531ZM153.643 74.1256C153.941 73.6737 154.392 73.5832 154.838 73.8856C155.314 74.2081 155.67 75.1174 155.486 75.6612C155.419 75.859 155.222 76.0127 155.084 76.1864L154.942 76.0988C154.888 75.8051 154.877 75.4929 154.765 75.2238C154.694 75.0532 154.47 74.9463 154.315 74.8109C154.169 74.9841 153.918 75.1491 153.903 75.3331C153.883 75.5871 154.015 75.8674 154.13 76.1138C154.203 76.2687 154.365 76.3821 154.532 76.5628L154.081 76.9167C153.374 76.2839 153.164 74.8495 153.643 74.1256ZM162.47 89.1738C162.423 89.7841 162.353 89.8097 161.74 89.8999C161.304 89.9637 161.187 90.0771 161.165 90.5946C161.139 91.1995 161.141 91.8066 161.162 92.4117C161.176 92.8266 161.036 93.1519 160.75 93.4413C159.165 95.0482 157.271 95.8097 155.005 95.5334C154.028 95.4141 153.389 94.8192 152.873 93.9774C153.103 93.8923 153.273 93.8351 153.439 93.7678C154.17 93.4702 154.307 92.8409 153.723 92.2966C153.281 91.8849 152.789 91.5272 152.315 91.1501C151.857 90.7856 151.393 90.4287 150.934 90.0652C150.543 89.7551 150.394 89.3555 150.385 88.8492C150.363 87.6347 150.613 86.4984 151.12 85.3929C151.573 84.4064 151.924 83.3733 152.348 82.373C152.567 81.8569 152.795 81.3288 153.116 80.8758C153.426 80.4413 153.617 80.0159 153.582 79.4836C153.563 79.1845 153.579 78.8831 153.579 78.5829L153.744 78.5004C154.012 78.7313 154.284 78.9572 154.547 79.1939C155.495 80.0484 156.396 80.0876 157.434 79.3509C157.876 79.0367 158.355 78.772 158.823 78.495C158.939 78.4261 159.079 78.3959 159.276 78.322C159.78 79.5094 160.275 80.6735 160.77 81.8377C161.022 82.4292 161.223 83.0487 161.535 83.6065C162.161 84.7256 162.494 85.9064 162.489 87.1859C162.486 87.8491 162.521 88.5148 162.47 89.1738Z" fill="#C62D2D"/>
<path d="M229.016 87.8672C229.062 87.9141 229.156 87.9844 229.227 87.9844H230.469C230.539 87.9844 230.633 87.9141 230.68 87.8672L231.008 87.5156C231.055 87.4688 231.078 87.4219 231.078 87.375L231.43 86.1797C231.453 86.0625 231.43 85.9453 231.359 85.875L231.102 85.6641C231.055 85.6172 230.961 85.6406 230.891 85.6406H229.766L229.719 85.5938L229.695 85.5703C229.648 85.5703 229.602 85.5469 229.555 85.5938L229.109 85.875C229.062 85.875 229.039 85.9922 229.016 86.0391L228.641 87.1875C228.594 87.3047 228.617 87.4453 228.711 87.5391L229.016 87.8672ZM229.203 94.0547L229.109 94.0781H228.828L230.516 89.1328C230.562 88.9688 230.492 88.7812 230.328 88.7344L230.234 88.7109H227.398C227.281 88.7344 227.187 88.8281 227.164 88.9453L227 89.5312C226.953 89.6953 227.07 89.8359 227.234 89.8828L227.305 89.8594H227.727L226.016 94.7578C225.969 94.9219 226.039 95.1328 226.203 95.2031L226.297 95.2734H228.922C229.062 95.2734 229.18 95.1562 229.227 95.0156L229.391 94.4531C229.461 94.2891 229.367 94.1016 229.203 94.0547ZM241.648 89.4375L241.203 88.8516V88.8281C241.133 88.7578 241.062 88.6875 240.969 88.6875H239.281C239.188 88.6875 239.117 88.7812 239.047 88.8281L238.578 89.3906H237.852L237.359 88.8281V88.8047C237.312 88.7344 237.219 88.6875 237.125 88.6875H236.188L240.922 83.9531L235.625 78.7031L240.359 73.8281V71.7188L239.703 70.875H230.117L229.344 71.6953V72.375L226.695 69.7031L224.891 71.4609L224.328 70.875H214.859L214.109 71.7422V73.9453L214.812 74.625H215.516V80.7422L212.234 84.0234L215.516 87.3047V94.8047L216.734 95.4844H219.453L221.586 93.2578L226.648 98.3203L230.047 94.9219C230.07 95.0156 230.141 95.0391 230.258 95.0859L230.352 95.0391H232.555C232.695 95.0391 232.812 95.0156 232.836 94.8984L233 94.4297C233.047 94.2656 232.977 94.125 232.812 94.0781L232.719 94.1016H232.625L233.422 91.5938L233.961 91.0547H235.133L233.961 94.7812C233.914 94.9453 234.008 95.0391 234.172 95.1094L234.266 95.0625H236.398C236.516 95.0625 236.633 95.0391 236.68 94.9219L236.867 94.5C236.938 94.3359 236.844 94.1953 236.703 94.125C236.68 94.1016 236.633 94.125 236.586 94.125H236.492L237.477 91.0781H238.906L237.711 94.8047C237.664 94.9688 237.758 95.0625 237.922 95.1094L238.016 95.0391H240.359C240.477 95.0391 240.594 95.0156 240.641 94.8984L240.828 94.4297C240.898 94.2656 240.805 94.125 240.641 94.0781C240.617 94.0547 240.57 94.1016 240.523 94.1016H240.359L241.672 89.7656C241.719 89.6484 241.695 89.5078 241.648 89.4375ZM226.695 70.1484L229.344 72.7969V73.8984L230.141 74.8594H230.516L223.719 81.4219V74.8594H224.492L225.125 73.875V71.7891L225.078 71.7188L226.695 70.1484ZM212.68 84.0234L215.516 81.1875V86.8594L212.68 84.0234ZM221.797 93L235.484 78.9375L240.5 83.9766L235.766 88.7109H235.742C235.672 88.7344 235.625 88.7812 235.578 88.8281L235.086 89.3906H234.406L233.891 88.8281C233.844 88.7578 233.75 88.6875 233.656 88.6875H231.594C231.453 88.6875 231.336 88.7812 231.289 88.9219L231.102 89.5078C231.055 89.6719 231.125 89.8125 231.289 89.8828H231.641L230.141 94.3125L226.602 97.875L221.797 93Z" fill="#C62D2D"/>
<path d="M271 92.7891C269.805 93.8672 271.141 94.9688 272.312 94.2656C272.57 93.9844 272.312 93.0469 271 92.7891ZM253.703 94.5234C254.641 95.3203 256.094 94.3125 256.516 93.1875C255.602 91.9922 252.227 93.2344 253.703 94.5234ZM271.492 91.6875C271.492 92.2266 275.43 92.5781 275.43 91.5703C274.867 89.9297 271.961 90.0234 271.492 91.6875ZM275.148 82.0547L264.203 70.8516C262.867 69.5625 260.641 69.5625 259.375 70.8516L248.805 81.6562C245.242 86.0859 251.242 85.5703 253.797 86.8359C254.711 87.7734 250.258 88.4766 251.195 89.4141C252.109 90.3516 256.773 91.2188 257.687 92.1797L256.727 95.0625C257.641 96 259.773 95.1094 260.172 97.2891C260.453 98.8359 264.016 97.9453 265.75 96.6797C266.664 95.7422 263.992 95.8359 264.906 94.875C267.203 92.5312 269.336 94.0312 270.109 91.6641C270.508 90.4922 266.734 89.8828 267.648 88.9219C270.32 87.3984 279.484 86.3906 275.148 82.0547ZM262.023 89.3438C260.898 89.6484 255.461 87.4219 256.82 87.4219C257.102 87.5859 261.367 88.4531 262.422 88.6406C262.797 88.7109 262.539 89.0859 262.023 89.3438ZM267.906 77.2734L265.844 75.6094L265.445 78.0703L263.711 77.1562L260.945 78.9141L260.031 75.2812L258.508 77.9062H256.234C255.297 77.9062 255.203 76.6641 256.047 75.8203C257.523 74.2266 259.211 72.5859 260.125 71.6484C261.039 70.7109 262.656 70.7109 263.57 71.625L267.742 75.8672C268.141 76.2656 268.141 77.0391 267.906 77.2734Z" fill="#C62D2D"/>
<defs>
<linearGradient id="paint0_linear" x1="105" y1="-19.9998" x2="155.718" y2="36.3533" gradientUnits="userSpaceOnUse">
<stop offset="0.578125" stop-color="#C62D2D"/>
<stop offset="0.848958" stop-color="#FF9292"/>
</linearGradient>
</defs>
</svg>
