<svg width="70" height="70" viewBox="0 0 70 70" fill="none" xmlns="http://www.w3.org/2000/svg">
<path fill-rule="evenodd" clip-rule="evenodd" d="M35 2.79077C16.7634 2.79077 1.97531 17.5755 1.97531 35.8155C1.97531 50.4072 11.4379 62.7857 24.5596 67.153C26.2095 67.4593 26.8155 66.4366 26.8155 65.5644C26.8155 64.7769 26.7848 62.1754 26.7706 59.4159C17.5831 61.4136 15.6445 55.5194 15.6445 55.5194C14.1422 51.7022 11.9777 50.6872 11.9777 50.6872C8.98078 48.6375 12.2035 48.6801 12.2035 48.6801C15.5192 48.9126 17.2659 52.0834 17.2659 52.0834C20.2114 57.131 24.9916 55.6719 26.8762 54.8287C27.1726 52.6942 28.0284 51.2368 28.9729 50.4121C21.6377 49.5781 13.9262 46.7458 13.9262 34.0917C13.9262 30.4862 15.2168 27.5401 17.3294 25.2269C16.9859 24.3956 15.8555 21.0367 17.6488 16.4878C17.6488 16.4878 20.4214 15.6002 26.7323 19.873C29.3672 19.1407 32.1929 18.7726 35 18.7601C37.8055 18.7726 40.6328 19.1396 43.2726 19.8719C49.5759 15.5991 52.3452 16.4867 52.3452 16.4867C54.1428 21.0351 53.0124 24.3945 52.6695 25.2258C54.787 27.5391 56.0684 30.4851 56.0684 34.0906C56.0684 46.7748 48.3427 49.5672 40.9888 50.3853C42.1739 51.4101 43.2294 53.4205 43.2294 56.501C43.2294 60.9198 43.1911 64.4761 43.1911 65.5638C43.1911 66.4426 43.7861 67.4724 45.4595 67.1481C58.5736 62.7764 68.0252 50.4017 68.0252 35.8155C68.0247 17.5766 53.2383 2.79132 35 2.79132V2.79077Z" fill="white"/>
<path d="M14.4834 50.2065C14.4107 50.3706 14.1526 50.4198 13.9174 50.3077C13.6768 50.2005 13.5428 49.9768 13.6205 49.8122C13.6916 49.6427 13.9502 49.5962 14.1892 49.7094C14.4298 49.8171 14.5666 50.043 14.4829 50.207L14.4834 50.2065ZM15.8211 51.6989C15.6641 51.8449 15.3562 51.7771 15.1473 51.5458C14.9308 51.3161 14.8903 51.0082 15.0505 50.86C15.2135 50.7145 15.5121 50.7834 15.7287 51.0131C15.9441 51.2461 15.9868 51.5513 15.8216 51.6995L15.8211 51.6989ZM17.1237 53.6004C16.9214 53.7415 16.59 53.6097 16.3855 53.316C16.1831 53.0218 16.1831 52.6691 16.3909 52.5285C16.5949 52.3874 16.9214 52.5149 17.1292 52.8058C17.3305 53.1038 17.3305 53.4566 17.1237 53.5999V53.6004ZM18.9071 55.4384C18.7266 55.6381 18.3405 55.5845 18.0584 55.3127C17.7702 55.0463 17.6898 54.6674 17.8708 54.4683C18.0545 54.2681 18.4423 54.3239 18.7261 54.5941C19.0143 54.8599 19.1012 55.2394 18.9082 55.4379L18.9071 55.4384ZM21.368 56.5054C21.2877 56.7641 20.9169 56.8817 20.5423 56.7712C20.1687 56.658 19.9243 56.3556 20.0009 56.0942C20.0774 55.8333 20.4509 55.7113 20.8277 55.8289C21.2012 55.9416 21.4457 56.2424 21.368 56.5054ZM24.0712 56.7028C24.0805 56.9752 23.7634 57.2005 23.3712 57.206C22.9759 57.2152 22.6559 56.9943 22.6521 56.7263C22.6521 56.4513 22.9627 56.2287 23.3576 56.221C23.7497 56.2139 24.0718 56.4327 24.0718 56.7023L24.0712 56.7028ZM26.5858 56.2752C26.6328 56.5404 26.3599 56.8133 25.97 56.886C25.5872 56.9571 25.2317 56.792 25.1825 56.5289C25.1355 56.2566 25.4133 55.9837 25.7961 55.9131C26.1866 55.8459 26.5366 56.0061 26.5858 56.2757V56.2752Z" fill="white"/>
</svg>
