<svg width="70" height="70" viewBox="0 0 70 70" fill="none" xmlns="http://www.w3.org/2000/svg">
<path d="M63.4375 1.64088H6.5625C5.27205 1.62774 4.02908 2.12707 3.10635 3.0293C2.18362 3.93153 1.65649 5.16295 1.64062 6.45338V63.5581C1.65936 64.8466 2.18775 66.0752 3.11017 66.9751C4.03259 67.875 5.27392 68.3728 6.5625 68.3596H63.4375C64.728 68.3699 65.9702 67.8688 66.8924 66.9661C67.8147 66.0633 68.3421 64.8321 68.3594 63.5417V6.43697C68.3364 5.15033 67.8064 3.92478 66.8848 3.02669C65.9632 2.12861 64.7243 1.63058 63.4375 1.64088ZM21.4211 58.5159H11.5172V26.6495H21.4211V58.5159ZM16.4992 22.3073C15.3633 22.3084 14.2526 21.9725 13.3075 21.3422C12.3625 20.7119 11.6257 19.8155 11.1902 18.7663C10.7548 17.7172 10.6403 16.5624 10.8612 15.4482C11.0822 14.334 11.6286 13.3103 12.4315 12.5067C13.2343 11.7031 14.2575 11.1557 15.3715 10.9336C16.4855 10.7116 17.6404 10.825 18.6899 11.2595C19.7395 11.6939 20.6366 12.4299 21.2678 13.3743C21.899 14.3188 22.2359 15.4292 22.2359 16.5651C22.2345 17.3201 22.0842 18.0674 21.7936 18.7642C21.503 19.4611 21.0779 20.0938 20.5425 20.6261C20.0071 21.1585 19.372 21.58 18.6735 21.8666C17.975 22.1532 17.2269 22.2992 16.4719 22.2963L16.4992 22.3073ZM58.5156 58.5159H48.6117V43.012C48.6117 39.3206 48.5461 34.5682 43.4656 34.5682C38.3852 34.5682 37.5211 38.5932 37.5211 42.7714V58.5159H27.6336V26.6495H37.1273V31.0245H37.2586C38.582 28.5198 41.8086 25.8784 46.6266 25.8784C56.6562 25.8565 58.5156 32.4573 58.5156 41.0159V58.5159Z" fill="white"/>
</svg>
