<svg width="22" height="34" viewBox="0 0 22 34" fill="none" xmlns="http://www.w3.org/2000/svg">
<g opacity="0.578817">
<g opacity="0.578817">
<g opacity="0.578817">
<g opacity="0.578817">
<path d="M1.44831 6.80136C3.26998 3.50527 6.04744 1.11845 9.82957 1.11039L11.8058 1.00858C15.7452 0.997748 19.0654 3.64992 20.8174 7.15875L19.8481 7.64611C18.2807 4.50151 15.0515 2.51682 11.5222 2.52886H10.5311C7.13243 2.52223 4.00074 4.35963 2.36312 7.32121C0.495779 10.6999 -0.543373 11.1547 1.52559 14.4152L9.44856 26.8699C10.8721 29.1907 15.0823 33.5903 17.4161 32.1747C18.9021 31.2733 19.8938 29.9362 19.8792 28.2053V25.5465H20.9683V28.2053C20.9694 31.5219 18.1756 33.9372 14.8404 33.9383C12.7664 33.9389 10.8372 32.8812 9.73067 31.1367L1.81859 18.6604C-0.466003 15.069 -0.607855 10.5267 1.44831 6.80136Z" fill="white"/>
<path opacity="0.578817" d="M9.97777 21.8928C10.9406 23.4487 14.2484 24.2309 15.5572 24.3679L14.5335 25.8137C12.3113 25.8092 10.2502 24.6594 9.08814 22.7758L5.22194 16.4456C3.09275 12.9659 4.20326 8.4286 7.70243 6.31117C8.86331 5.6087 10.2727 4.82052 12.6578 4.8732C16.0696 4.3615 16.5847 6.92991 17.425 9.44393L16.4012 9.80674C15.9353 8.41134 14.8818 7.28663 13.5152 6.72556C13.5152 6.72556 12.7826 6.43402 12.3972 6.36286C12.1208 6.31182 11.5549 6.31943 11.5549 6.31943C8.06033 6.33344 5.23882 9.16194 5.25291 12.6371C5.25754 13.7821 5.5763 14.9042 6.17488 15.8824L9.97777 21.8928Z" fill="white"/>
</g>
</g>
</g>
<g opacity="0.578817">
<path opacity="0.578817" d="M11.6349 21.7428H12.0996C12.7191 21.7428 13.1218 21.6411 13.3076 21.4376C13.4979 21.2342 13.5931 20.7941 13.5931 20.1175V18.3573C13.5931 17.6191 13.6926 17.0821 13.8918 16.7461C14.0909 16.4102 14.4361 16.1783 14.9273 16.0506C14.4361 15.9323 14.0909 15.7052 13.8918 15.3692C13.6926 15.0333 13.5931 14.4939 13.5931 13.751V11.9908C13.5931 11.3189 13.4979 10.8812 13.3076 10.6777C13.1218 10.4695 12.7191 10.3654 12.0996 10.3654H11.6349V9.35048L12.3115 8.51558C13.0029 7.6624 14.4634 8.65534 14.8307 9.00548C15.2024 9.3509 14.2674 11.0693 14.8144 11.9624L16.3344 14.4436C16.7032 15.0457 14.9339 14.8606 15.1729 15.135C15.4118 15.4047 15.8455 15.5396 16.4739 15.5396H16.8854V16.5545H16.4739C15.8455 16.5545 15.4118 16.6917 15.1729 16.9662C14.9339 17.2406 14.8144 17.7351 14.8144 18.4496V20.1459C14.8144 21.1916 14.6286 21.8895 14.2568 22.2397C13.8896 22.5898 13.155 22.7649 12.0531 22.7649H11.6349V21.7428Z" fill="white"/>
</g>
<g opacity="0.578817">
<path opacity="0.578817" d="M18.3512 13.9343C18.1114 13.9343 17.7368 13.7143 17.5707 13.5675C17.4047 13.4207 17.3217 13.1823 17.3217 12.8521C17.3217 12.5035 17.4047 12.2604 17.5707 12.1229C17.7368 11.9853 18.1114 11.7924 18.3512 11.7924C18.5818 11.7924 19.0598 11.9976 19.2258 12.1352C19.4011 12.2727 19.4887 12.5158 19.4887 12.8644C19.4887 13.1946 19.4011 13.433 19.2258 13.5798C19.0598 13.7265 18.5818 13.9343 18.3512 13.9343ZM17.0323 21.9898C17.1799 21.3936 17.3228 20.7561 17.4612 20.0774C17.5995 19.4078 17.7056 18.8116 17.7794 18.2888H19.2598L19.3705 18.4539C19.2321 18.995 19.0384 19.5821 18.7894 20.2149C18.5496 20.8478 18.3051 21.4394 18.0561 21.9898H17.0323Z" fill="white"/>
</g>
</g>
<path d="M2.47204 5.35555C4.29371 2.05946 7.77274 0.00809446 11.5549 3.95371e-05H12.5459C16.4854 -0.0107906 20.0891 2.20411 21.8411 5.71294L20.8718 6.2003C19.3044 3.0557 16.0753 1.07101 12.5459 1.08305H11.5549C8.15616 1.07642 5.02448 2.91382 3.38686 5.87539C1.51951 9.25406 1.64462 13.3747 3.71358 16.6351L11.6365 29.0898C13.0601 31.4106 16.106 32.1445 18.4398 30.7289C19.9259 29.8275 20.9176 28.4904 20.9029 26.7594V24.1006H21.992V26.7594C21.9931 30.0761 19.1993 32.4914 15.8641 32.4924C13.7901 32.4931 11.8609 31.4353 10.7544 29.6909L2.84232 17.2146C0.557728 13.6231 0.415876 9.08091 2.47204 5.35555Z" fill="white"/>
<path d="M11.0539 20.7722C12.0168 22.3282 13.7201 23.2785 15.5572 23.2848V24.3678C13.335 24.3634 11.274 23.2136 10.1119 21.33L6.24566 14.9998C4.11646 11.52 5.22697 6.98275 8.72615 4.86532C9.88703 4.16285 11.2197 3.79103 12.5786 3.79056C15.2427 3.78839 17.6084 5.48406 18.4487 7.99807L17.4249 8.36088C16.959 6.96549 15.9056 5.84077 14.5389 5.27971C14.5389 5.27971 13.8063 4.98816 13.4209 4.917C13.1445 4.86597 12.5786 4.87357 12.5786 4.87357C9.08404 4.88759 6.26254 7.71608 6.27663 11.1912C6.28126 12.3363 6.60001 13.4584 7.19859 14.4366L11.0539 20.7722Z" fill="white"/>
<path d="M12.6587 20.2971H13.1233C13.7428 20.2971 14.1455 20.1954 14.3314 19.9919C14.5217 19.7884 14.6168 19.3484 14.6168 18.6718V16.9116C14.6168 16.1734 14.7164 15.6364 14.9155 15.3004C15.1146 14.9645 15.4598 14.7326 15.951 14.6049C15.4598 14.4866 15.1146 14.2594 14.9155 13.9235C14.7164 13.5875 14.6168 13.0481 14.6168 12.3052V10.545C14.6168 9.87315 14.5217 9.43546 14.3314 9.232C14.1455 9.0238 13.7428 8.91971 13.1233 8.91971H12.6587V7.90475H13.0768C14.1787 7.90475 14.9133 8.07983 15.2806 8.42997C15.6523 8.77539 15.8382 9.47095 15.8382 10.5167V12.2201C15.8382 12.9251 15.9576 13.4148 16.1966 13.6893C16.4356 13.959 16.8692 14.0938 17.4976 14.0938H17.9092V15.1088H17.4976C16.8692 15.1088 16.4356 15.246 16.1966 15.5204C15.9576 15.7949 15.8382 16.2893 15.8382 17.0038V18.7002C15.8382 19.7459 15.6523 20.4438 15.2806 20.7939C14.9133 21.1441 14.1787 21.3192 13.0768 21.3192H12.6587V20.2971Z" fill="white"/>
<path d="M19.3749 12.4885C19.1351 12.4885 18.7605 12.2685 18.5944 12.1217C18.4284 11.9749 18.3454 11.7365 18.3454 11.4063C18.3454 11.0577 18.4284 10.8146 18.5944 10.6771C18.7605 10.5395 19.1351 10.3466 19.3749 10.3466C19.6055 10.3466 20.0835 10.5518 20.2495 10.6894C20.4248 10.8269 20.5124 11.07 20.5124 11.4186C20.5124 11.7488 20.4248 11.9872 20.2495 12.134C20.0835 12.2807 19.6055 12.4885 19.3749 12.4885ZM18.056 20.544C18.2036 19.9478 18.3465 19.3103 18.4849 18.6316C18.6232 17.962 18.7293 17.3658 18.8031 16.843H20.2835L20.3942 17.0081C20.2558 17.5492 20.0621 18.1363 19.8131 18.7691C19.5733 19.402 19.3288 19.9936 19.0798 20.544H18.056Z" fill="white"/>
</svg>
