<svg width="84" height="84" viewBox="0 0 84 84" fill="none" xmlns="http://www.w3.org/2000/svg">
<path d="M70.875 16.4062C69.9694 16.4062 69.2344 17.1413 69.2344 18.0469C69.2344 18.9525 69.9694 19.6875 70.875 19.6875C71.7806 19.6875 72.5156 18.9525 72.5156 18.0469C72.5156 17.1413 71.7806 16.4062 70.875 16.4062Z" fill="black"/>
<path d="M13.125 16.4062C12.2194 16.4062 11.4844 17.1413 11.4844 18.0469C11.4844 18.9525 12.2194 19.6875 13.125 19.6875C14.0306 19.6875 14.7656 18.9525 14.7656 18.0469C14.7656 17.1413 14.0306 16.4062 13.125 16.4062Z" fill="black"/>
<path d="M82.3594 36.0938H80.3972C79.7839 31.3681 78.3021 26.8648 75.9767 22.6891C75.5359 21.8976 74.5369 21.613 73.7451 22.0538C72.9535 22.4947 72.669 23.4938 73.1099 24.2854C75.162 27.9707 76.4971 31.9353 77.0887 36.0938H75.7969C74.8908 36.0938 74.1562 36.8283 74.1562 37.7344V44.2969C74.1562 45.203 74.8908 45.9375 75.7969 45.9375H82.3594C83.2655 45.9375 84 45.203 84 44.2969V37.7344C84 36.8283 83.2655 36.0938 82.3594 36.0938ZM80.7187 42.6563H77.4375V39.375H78.9269C78.9274 39.375 78.928 39.375 78.9285 39.375C78.9292 39.375 78.9296 39.375 78.9303 39.375H80.7187V42.6563Z" fill="black"/>
<path d="M60.0438 48.0081C60.0428 47.9827 60.0421 47.9573 60.04 47.9318C60.037 47.8971 60.0323 47.8628 60.0272 47.8286C60.0241 47.8076 60.0216 47.7866 60.0175 47.7656C60.01 47.7255 60.0001 47.6861 59.9898 47.6469C59.9858 47.6319 59.9827 47.617 59.9783 47.6022C59.9637 47.5532 59.9466 47.5051 59.9276 47.458C59.9255 47.4529 59.924 47.4475 59.9219 47.4424C59.8992 47.3876 59.8738 47.3343 59.8456 47.2828L43.4396 17.26C43.152 16.7337 42.6 16.4062 42 16.4062C41.4 16.4062 40.848 16.7337 40.5604 17.2602L24.1544 47.283C24.1262 47.3345 24.1008 47.3878 24.0781 47.4426C24.076 47.4477 24.0745 47.4529 24.0724 47.4582C24.0534 47.5053 24.0363 47.5534 24.0217 47.6024C24.0173 47.6172 24.0142 47.6321 24.0102 47.647C23.9997 47.6862 23.99 47.7255 23.9825 47.7658C23.9786 47.7866 23.9761 47.8077 23.9728 47.8288C23.9677 47.8629 23.963 47.8972 23.96 47.932C23.9579 47.9574 23.9571 47.9829 23.9562 48.0083C23.9554 48.029 23.9531 48.0493 23.9531 48.0703C23.9531 48.0811 23.9546 48.0915 23.9548 48.1023C23.9553 48.1281 23.9569 48.1537 23.9587 48.1794C23.9608 48.2121 23.9635 48.2445 23.9676 48.2767C23.9705 48.2993 23.9741 48.3218 23.9779 48.3445C23.9838 48.3799 23.9909 48.415 23.9991 48.4496C24.0037 48.4692 24.0087 48.4887 24.0142 48.508C24.0245 48.5454 24.0363 48.5822 24.0491 48.6184C24.0527 48.6288 24.055 48.6393 24.0589 48.6496L29.9757 64.3289C29.5011 64.5642 29.062 64.8767 28.6763 65.2623C27.7464 66.1922 27.2344 67.428 27.2344 68.7422C27.2344 70.8809 28.6061 72.7046 30.5156 73.3819V82.3594C30.5156 83.2655 31.2501 84 32.1562 84H51.8438C52.7499 84 53.4844 83.2655 53.4844 82.3594V73.3847C54.1684 73.1433 54.7956 72.7504 55.3238 72.2221C56.2536 71.2922 56.7656 70.0563 56.7656 68.7422C56.7656 66.8107 55.6469 65.1364 54.0236 64.331L59.9412 48.6496C59.9452 48.6393 59.9475 48.6288 59.9511 48.6184C59.9639 48.5822 59.9757 48.5454 59.986 48.508C59.9914 48.4887 59.9963 48.4692 60.0011 48.4496C60.0093 48.415 60.0162 48.3799 60.0223 48.3445C60.026 48.3218 60.0298 48.2993 60.0326 48.2767C60.0367 48.2445 60.0393 48.2121 60.0415 48.1794C60.0431 48.1537 60.0449 48.1281 60.0454 48.1023C60.0456 48.0916 60.047 48.0811 60.047 48.0703C60.0469 48.0493 60.0446 48.029 60.0438 48.0081ZM42 46.4297C42.9046 46.4297 43.6406 47.1657 43.6406 48.0703C43.6406 48.975 42.9046 49.7109 42 49.7109C41.0954 49.7109 40.3594 48.975 40.3594 48.0703C40.3594 47.1657 41.0954 46.4297 42 46.4297ZM50.2031 80.7188H33.7969V73.6641H50.2031V80.7188ZM53.0035 69.9018C52.6934 70.212 52.2815 70.3828 51.8438 70.3828H32.1562C31.2516 70.3828 30.5156 69.6468 30.5156 68.7422C30.5156 68.3045 30.6864 67.8925 30.9965 67.5826C31.3067 67.2724 31.7185 67.1016 32.1562 67.1016H51.8328C51.8364 67.1016 51.84 67.1021 51.8436 67.1021C51.8454 67.1021 51.8474 67.1019 51.8492 67.1019C52.7513 67.1048 53.4845 67.8394 53.4845 68.7422C53.4844 69.1799 53.3136 69.5919 53.0035 69.9018ZM50.7093 63.8203H33.2907L27.9664 49.7109H32.1562C33.0624 49.7109 33.7969 48.9764 33.7969 48.0703C33.7969 47.1642 33.0624 46.4297 32.1562 46.4297H28.3598L40.3594 24.4706V43.4306C38.4499 44.1079 37.0781 45.9314 37.0781 48.0703C37.0781 50.7842 39.2861 52.9922 42 52.9922C44.7139 52.9922 46.9219 50.7842 46.9219 48.0703C46.9219 45.9316 45.5501 44.1079 43.6406 43.4306V24.4706L55.6402 46.4297H51.8438C50.9376 46.4297 50.2031 47.1642 50.2031 48.0703C50.2031 48.9764 50.9376 49.7109 51.8438 49.7109H56.0336L50.7093 63.8203Z" fill="black"/>
<path d="M10.2547 22.0537C9.46296 21.6127 8.46382 21.8972 8.02315 22.689C5.69789 26.8647 4.21591 31.368 3.60281 36.0937H1.64062C0.734508 36.0937 0 36.8282 0 37.7343V44.2968C0 45.2029 0.734508 45.9374 1.64062 45.9374H8.20312C9.10924 45.9374 9.84375 45.2029 9.84375 44.2968V37.7343C9.84375 36.8282 9.10924 36.0937 8.20312 36.0937H6.91113C7.50291 31.9352 8.83788 27.9706 10.89 24.2853C11.3308 23.4937 11.0465 22.4945 10.2547 22.0537ZM6.5625 42.6562H3.28125V39.3749H5.06969C5.07035 39.3749 5.07084 39.3749 5.0715 39.3749C5.07199 39.3749 5.07265 39.3749 5.07314 39.3749H6.5625V42.6562Z" fill="black"/>
<path d="M79.0781 0C76.9394 0 75.1157 1.37173 74.4384 3.28125H46.9219V1.64062C46.9219 0.734508 46.1874 0 45.2812 0H38.7188C37.8126 0 37.0781 0.734508 37.0781 1.64062V3.28125H9.56156C8.88431 1.37173 7.06059 0 4.92188 0C2.20795 0 0 2.20795 0 4.92187C0 7.6358 2.20795 9.84375 4.92188 9.84375C7.06059 9.84375 8.88431 8.47202 9.56156 6.5625H26.0554C22.5561 8.02676 19.3471 9.92758 16.7057 12.1544C16.0128 12.7385 15.9247 13.7735 16.5088 14.4662C16.8333 14.8513 17.2971 15.0495 17.7639 15.0495C18.1373 15.0495 18.5126 14.9228 18.8204 14.6632C23.5277 10.6949 30.2454 7.86073 37.0781 6.91015V8.20312C37.0781 9.10924 37.8126 9.84375 38.7188 9.84375H45.2812C46.1874 9.84375 46.9219 9.10924 46.9219 8.20312V6.91015C53.7546 7.86073 60.4723 10.6949 65.1796 14.6631C65.4874 14.9226 65.8627 15.0495 66.2361 15.0493C66.7031 15.0493 67.1669 14.8511 67.4912 14.466C68.0754 13.7735 67.9872 12.7385 67.2943 12.1544C64.6529 9.92758 61.4439 8.02676 57.9446 6.5625H74.4384C75.1157 8.47202 76.9392 9.84375 79.0781 9.84375C81.792 9.84375 84 7.6358 84 4.92187C84 2.20795 81.792 0 79.0781 0ZM4.92188 6.5625C4.01723 6.5625 3.28125 5.82652 3.28125 4.92187C3.28125 4.01723 4.01723 3.28125 4.92188 3.28125C5.82652 3.28125 6.5625 4.01723 6.5625 4.92187C6.5625 5.82652 5.82652 6.5625 4.92188 6.5625ZM43.6406 4.92187V5.06953V6.5625H40.3594V5.06953V4.92187V3.28125H43.6406V4.92187ZM79.0781 6.5625C78.1735 6.5625 77.4375 5.82652 77.4375 4.92187C77.4375 4.01723 78.1735 3.28125 79.0781 3.28125C79.9828 3.28125 80.7188 4.01723 80.7188 4.92187C80.7188 5.82652 79.9828 6.5625 79.0781 6.5625Z" fill="black"/>
</svg>
